<svg xmlns="http://www.w3.org/2000/svg" xmlns:xlink="http://www.w3.org/1999/xlink" width="1080" zoomAndPan="magnify" viewBox="0 0 810 809.999993" height="1080" preserveAspectRatio="xMidYMid meet" version="1.0"><defs><g/></defs><g fill="#000000" fill-opacity="1"><g transform="translate(57.750281, 327.2729)"><g><path d="M 18.921875 -66.484375 C 17.742188 -67.472656 16.441406 -67.96875 15.015625 -67.96875 C 13.597656 -67.96875 12.332031 -67.457031 11.21875 -66.4375 C 10.101562 -65.414062 9.484375 -64.195312 9.359375 -62.78125 C 9.296875 -62.039062 9.175781 -61.484375 9 -61.109375 C 7.082031 -54.179688 5.875 -48.894531 5.375 -45.25 C 4.882812 -41.601562 4.640625 -36.132812 4.640625 -28.84375 L 4.640625 -11.125 C 4.640625 -8.65625 5.164062 -6.707031 6.21875 -5.28125 C 7.269531 -3.863281 8.722656 -3.15625 10.578125 -3.15625 C 12.117188 -3.15625 13.445312 -3.710938 14.5625 -4.828125 C 16.289062 -2.660156 18.175781 -1.203125 20.21875 -0.453125 C 22.257812 0.285156 25.132812 0.65625 28.84375 0.65625 C 31.25 0.65625 33.285156 0.113281 34.953125 -0.96875 C 36.628906 -2.050781 37.46875 -3.613281 37.46875 -5.65625 C 37.46875 -7.320312 36.878906 -8.679688 35.703125 -9.734375 C 34.523438 -10.785156 33.164062 -11.3125 31.625 -11.3125 C 30.757812 -11.3125 29.957031 -11.125 29.21875 -10.75 C 27.238281 -10.75 25.503906 -10.90625 24.015625 -11.21875 C 24.015625 -12.457031 24 -13.910156 23.96875 -15.578125 C 23.9375 -17.242188 23.921875 -18.359375 23.921875 -18.921875 C 23.921875 -20.035156 23.984375 -22.878906 24.109375 -27.453125 L 28.46875 -27.453125 C 30.007812 -27.453125 31.335938 -28.003906 32.453125 -29.109375 C 33.566406 -30.222656 34.125 -31.550781 34.125 -33.09375 C 34.125 -34.644531 33.566406 -35.992188 32.453125 -37.140625 C 31.335938 -38.285156 30.007812 -38.859375 28.46875 -38.859375 L 24.765625 -38.859375 C 25.253906 -46.953125 25.65625 -52.484375 25.96875 -55.453125 L 28.5625 -54.90625 C 30.289062 -54.46875 32.035156 -54.046875 33.796875 -53.640625 C 35.554688 -53.242188 36.410156 -53.046875 36.359375 -53.046875 C 37.835938 -53.046875 39.148438 -53.570312 40.296875 -54.625 C 41.441406 -55.675781 42.015625 -57.035156 42.015625 -58.703125 C 42.015625 -59.941406 41.65625 -61.050781 40.9375 -62.03125 C 40.226562 -63.019531 39.285156 -63.734375 38.109375 -64.171875 C 37.429688 -64.421875 36.503906 -64.679688 35.328125 -64.953125 C 34.148438 -65.234375 32.585938 -65.570312 30.640625 -65.96875 C 28.703125 -66.375 26.988281 -66.765625 25.5 -67.140625 C 24.082031 -67.453125 23.125 -67.609375 22.625 -67.609375 C 21.570312 -67.609375 20.707031 -67.421875 20.03125 -67.046875 C 19.351562 -66.671875 18.984375 -66.484375 18.921875 -66.484375 Z M 18.921875 -66.484375 "/></g></g></g><g fill="#000000" fill-opacity="1"><g transform="translate(117.096907, 327.2729)"><g><path d="M 35.984375 -59.25 C 35.984375 -62.15625 33.910156 -64.535156 29.765625 -66.390625 C 27.359375 -67.441406 25.007812 -67.96875 22.71875 -67.96875 C 19.5625 -67.96875 16.992188 -66.578125 15.015625 -63.796875 C 14.273438 -64.109375 13.566406 -64.265625 12.890625 -64.265625 C 10.660156 -64.265625 8.726562 -62.960938 7.09375 -60.359375 C 5.457031 -57.765625 4.640625 -55.234375 4.640625 -52.765625 C 4.640625 -51.523438 4.804688 -50.175781 5.140625 -48.71875 C 5.484375 -47.269531 5.851562 -46.035156 6.25 -45.015625 C 6.65625 -44.003906 7.179688 -42.691406 7.828125 -41.078125 C 8.484375 -39.472656 8.9375 -38.332031 9.1875 -37.65625 C 10.050781 -35.113281 10.820312 -33.257812 11.5 -32.09375 C 15.582031 -23.988281 18.207031 -18.269531 19.375 -14.9375 C 20.0625 -13.320312 20.40625 -11.617188 20.40625 -9.828125 C 20.40625 -8.410156 20.28125 -6.957031 20.03125 -5.46875 C 18.976562 -6.457031 17.679688 -6.953125 16.140625 -6.953125 C 14.460938 -6.953125 13.097656 -6.363281 12.046875 -5.1875 C 11.003906 -4.019531 10.484375 -2.691406 10.484375 -1.203125 C 10.484375 1.023438 11.53125 2.878906 13.625 4.359375 C 15.726562 5.835938 18.203125 6.578125 21.046875 6.578125 C 27.171875 6.578125 31.222656 5.15625 33.203125 2.3125 C 35.179688 -0.53125 36.171875 -5.378906 36.171875 -12.234375 C 36.171875 -19.898438 33.296875 -30.503906 27.546875 -44.046875 C 26.554688 -46.273438 25.90625 -47.804688 25.59375 -48.640625 C 25.28125 -49.472656 24.984375 -50.550781 24.703125 -51.875 C 24.429688 -53.207031 24.296875 -54.648438 24.296875 -56.203125 C 24.972656 -55.953125 25.46875 -55.703125 25.78125 -55.453125 C 27.507812 -54.210938 28.960938 -53.59375 30.140625 -53.59375 C 31.804688 -53.59375 33.195312 -54.148438 34.3125 -55.265625 C 35.425781 -56.378906 35.984375 -57.707031 35.984375 -59.25 Z M 35.984375 -59.25 "/></g></g></g><g fill="#000000" fill-opacity="1"><g transform="translate(170.601801, 327.2729)"><g><path d="M 41.828125 -45.15625 C 41.828125 -40.09375 41.453125 -36.539062 40.703125 -34.5 C 39.035156 -30.101562 36.875 -27.117188 34.21875 -25.546875 C 31.5625 -23.972656 27.484375 -23.03125 21.984375 -22.71875 L 21.984375 -4.171875 C 21.984375 -2.816406 21.53125 -1.597656 20.625 -0.515625 C 19.726562 0.566406 18.632812 1.234375 17.34375 1.484375 C 15.914062 2.535156 14.585938 3.0625 13.359375 3.0625 C 10.691406 3.0625 8.570312 1.441406 7 -1.796875 C 5.425781 -5.046875 4.640625 -8.585938 4.640625 -12.421875 L 4.640625 -34.3125 C 4.640625 -40 5.566406 -48.804688 7.421875 -60.734375 C 7.785156 -62.648438 8.21875 -64.101562 8.71875 -65.09375 L 9.09375 -65.75 C 10.082031 -67.726562 11.78125 -68.71875 14.1875 -68.71875 C 15.113281 -68.71875 15.976562 -68.5 16.78125 -68.0625 L 17.34375 -67.703125 C 17.832031 -67.816406 18.203125 -67.875 18.453125 -67.875 C 19.992188 -68.0625 22 -67.890625 24.46875 -67.359375 C 26.945312 -66.835938 29.050781 -66.019531 30.78125 -64.90625 C 34.25 -62.8125 36.925781 -59.984375 38.8125 -56.421875 C 40.695312 -52.867188 41.703125 -49.113281 41.828125 -45.15625 Z M 21.703125 -34.875 C 23.617188 -34.875 25.191406 -35.164062 26.421875 -35.75 C 27.660156 -36.332031 28.554688 -37.179688 29.109375 -38.296875 C 29.671875 -39.410156 30.03125 -40.460938 30.1875 -41.453125 C 30.34375 -42.441406 30.421875 -43.585938 30.421875 -44.890625 C 30.421875 -47.296875 29.707031 -49.378906 28.28125 -51.140625 C 26.863281 -52.898438 24.390625 -53.78125 20.859375 -53.78125 C 20.859375 -45.625 21.140625 -39.320312 21.703125 -34.875 Z M 21.703125 -34.875 "/></g></g></g><g fill="#000000" fill-opacity="1"><g transform="translate(229.762954, 327.2729)"><g><path d="M 41.828125 -23.546875 C 43.367188 -23.546875 44.710938 -22.988281 45.859375 -21.875 C 47.003906 -20.769531 47.578125 -19.441406 47.578125 -17.890625 C 47.578125 -16.347656 47.003906 -15.003906 45.859375 -13.859375 C 44.710938 -12.710938 43.367188 -12.140625 41.828125 -12.140625 L 40.890625 -12.140625 L 40.890625 -10.015625 L 41.359375 -8.90625 C 41.609375 -8.34375 41.734375 -7.691406 41.734375 -6.953125 C 41.734375 -5.410156 41.175781 -4.066406 40.0625 -2.921875 C 38.945312 -1.773438 37.585938 -1.203125 35.984375 -1.203125 C 34.066406 -1.203125 32.503906 -2.066406 31.296875 -3.796875 C 30.085938 -5.535156 29.484375 -7.578125 29.484375 -9.921875 L 29.484375 -12.140625 L 19.203125 -12.140625 C 18.890625 -10.660156 18.515625 -9.097656 18.078125 -7.453125 C 17.648438 -5.816406 17.4375 -4.972656 17.4375 -4.921875 C 17.0625 -3.242188 16.535156 -1.972656 15.859375 -1.109375 C 15.179688 -0.242188 14.128906 0.1875 12.703125 0.1875 C 11.898438 0.1875 11.222656 0.0625 10.671875 -0.1875 C 9.492188 0.613281 8.5625 1.015625 7.875 1.015625 C 7.070312 1.015625 6.46875 0.660156 6.0625 -0.046875 C 5.664062 -0.753906 5.253906 -1.789062 4.828125 -3.15625 C 4.703125 -3.644531 4.640625 -4.234375 4.640625 -4.921875 C 4.640625 -9.859375 6.273438 -19.882812 9.546875 -35 C 12.828125 -50.125 15.457031 -59.628906 17.4375 -63.515625 C 17.738281 -64.816406 18.367188 -65.867188 19.328125 -66.671875 C 20.285156 -67.472656 21.507812 -67.875 23 -67.875 C 23.613281 -67.875 24.289062 -67.785156 25.03125 -67.609375 C 26.144531 -69.523438 27.785156 -70.484375 29.953125 -70.484375 C 33.785156 -70.484375 35.703125 -67.882812 35.703125 -62.6875 L 36.90625 -52.859375 C 37.707031 -46.304688 38.507812 -39.785156 39.3125 -33.296875 L 40.53125 -23.546875 Z M 21.890625 -23.546875 L 29.125 -23.546875 C 28.375 -32.828125 27.691406 -39.132812 27.078125 -42.46875 L 25.96875 -41.734375 C 25.84375 -41.109375 24.484375 -35.046875 21.890625 -23.546875 Z M 21.890625 -23.546875 "/></g></g></g><g fill="#000000" fill-opacity="1"><g transform="translate(294.673105, 327.2729)"><g><path d="M 45.53125 -54.0625 C 45.53125 -57.894531 43.707031 -61.265625 40.0625 -64.171875 C 36.414062 -67.078125 32.425781 -68.53125 28.09375 -68.53125 C 26.863281 -69.945312 25.007812 -70.65625 22.53125 -70.65625 C 19.4375 -70.65625 16.695312 -69.28125 14.3125 -66.53125 C 11.9375 -63.78125 10.066406 -60.195312 8.703125 -55.78125 C 7.347656 -51.363281 6.332031 -46.664062 5.65625 -41.6875 C 4.976562 -36.707031 4.640625 -31.648438 4.640625 -26.515625 C 4.640625 -19.035156 7.296875 -12.28125 12.609375 -6.25 C 17.929688 -0.226562 23.957031 2.78125 30.6875 2.78125 C 32.425781 2.78125 33.789062 2.378906 34.78125 1.578125 C 35.769531 1.703125 36.507812 1.765625 37 1.765625 C 39.164062 1.765625 40.972656 1.222656 42.421875 0.140625 C 43.878906 -0.941406 44.609375 -2.472656 44.609375 -4.453125 C 44.609375 -6.054688 44.019531 -7.382812 42.84375 -8.4375 C 41.664062 -9.488281 40.367188 -10.015625 38.953125 -10.015625 C 38.703125 -10.015625 38.3125 -9.96875 37.78125 -9.875 C 37.257812 -9.78125 36.8125 -9.734375 36.4375 -9.734375 C 33.71875 -9.734375 31.078125 -11.414062 28.515625 -14.78125 C 25.953125 -18.15625 24.671875 -21.484375 24.671875 -24.765625 C 24.671875 -33.722656 24.867188 -40.023438 25.265625 -43.671875 C 25.671875 -47.328125 26.613281 -50.789062 28.09375 -54.0625 C 28.894531 -55.914062 29.671875 -56.84375 30.421875 -56.84375 C 31.097656 -56.84375 32.332031 -55.851562 34.125 -53.875 C 34.1875 -52.394531 34.773438 -51.097656 35.890625 -49.984375 C 37.003906 -48.867188 38.332031 -48.3125 39.875 -48.3125 C 41.414062 -48.3125 42.742188 -48.867188 43.859375 -49.984375 C 44.972656 -51.097656 45.53125 -52.457031 45.53125 -54.0625 Z M 45.53125 -54.0625 "/></g></g></g><g fill="#000000" fill-opacity="1"><g transform="translate(357.543287, 327.2729)"><g><path d="M 8.90625 -55.640625 L 8.90625 -45.90625 C 8.90625 -41.144531 9.085938 -33.800781 9.453125 -23.875 C 9.828125 -13.957031 10.203125 -8.535156 10.578125 -7.609375 C 8.835938 -7.421875 7.472656 -6.785156 6.484375 -5.703125 C 5.492188 -4.617188 5 -3.367188 5 -1.953125 C 5 0.0234375 5.679688 1.429688 7.046875 2.265625 C 8.410156 3.109375 10.546875 3.53125 13.453125 3.53125 C 14.003906 3.53125 15.421875 3.296875 17.703125 2.828125 C 19.992188 2.367188 21.664062 1.921875 22.71875 1.484375 C 25.5 0.367188 26.890625 -1.484375 26.890625 -4.078125 C 26.890625 -4.453125 26.707031 -5.285156 26.34375 -6.578125 C 27.082031 -7.566406 27.453125 -8.710938 27.453125 -10.015625 C 27.453125 -17.679688 27.546875 -22.78125 27.734375 -25.3125 C 27.785156 -26.550781 28.046875 -33.257812 28.515625 -45.4375 C 28.984375 -57.613281 29.21875 -64.101562 29.21875 -64.90625 C 29.21875 -66.457031 28.644531 -67.800781 27.5 -68.9375 C 26.351562 -70.082031 25.007812 -70.65625 23.46875 -70.65625 C 22.164062 -70.65625 20.988281 -70.222656 19.9375 -69.359375 C 19.320312 -69.242188 18.519531 -69.1875 17.53125 -69.1875 C 16.96875 -69.1875 16.378906 -69.210938 15.765625 -69.265625 C 15.148438 -69.328125 14.78125 -69.359375 14.65625 -69.359375 C 13.414062 -69.359375 12.300781 -68.957031 11.3125 -68.15625 C 9.394531 -67.90625 7.800781 -67.082031 6.53125 -65.6875 C 5.269531 -64.300781 4.640625 -62.804688 4.640625 -61.203125 C 4.640625 -59.898438 5.039062 -58.738281 5.84375 -57.71875 C 6.644531 -56.707031 7.664062 -56.015625 8.90625 -55.640625 Z M 8.90625 -55.640625 "/></g></g></g><g fill="#000000" fill-opacity="1"><g transform="translate(404.093765, 327.2729)"><g><path d="M 17.25 -65.84375 C 16.070312 -66.894531 14.742188 -67.421875 13.265625 -67.421875 C 11.710938 -67.421875 10.410156 -66.894531 9.359375 -65.84375 C 7.328125 -63.800781 6.03125 -60.910156 5.46875 -57.171875 C 4.914062 -53.429688 4.640625 -46.117188 4.640625 -35.234375 L 4.640625 -25.6875 C 4.640625 -17.707031 4.773438 -12.695312 5.046875 -10.65625 C 5.328125 -8.625 6.179688 -6.679688 7.609375 -4.828125 C 9.765625 -1.671875 12.082031 0.863281 14.5625 2.78125 C 15.550781 3.769531 17.40625 4.265625 20.125 4.265625 C 25.007812 4.265625 29.023438 2.316406 32.171875 -1.578125 C 35.328125 -5.472656 37.242188 -10.390625 37.921875 -16.328125 C 38.546875 -22.191406 38.859375 -27.007812 38.859375 -30.78125 C 38.859375 -32.632812 38.890625 -35.273438 38.953125 -38.703125 C 39.015625 -42.140625 39.046875 -44.632812 39.046875 -46.1875 C 39.046875 -49.207031 38.96875 -51.785156 38.8125 -53.921875 C 38.65625 -56.054688 38.28125 -58.1875 37.6875 -60.3125 C 37.101562 -62.445312 36.332031 -64.164062 35.375 -65.46875 C 34.414062 -66.769531 33.085938 -67.851562 31.390625 -68.71875 C 29.691406 -69.582031 27.632812 -70.046875 25.21875 -70.109375 C 22.3125 -70.109375 19.65625 -68.6875 17.25 -65.84375 Z M 24.015625 -9.546875 L 23.640625 -9.734375 C 23.398438 -9.859375 23.09375 -10.046875 22.71875 -10.296875 C 22.34375 -10.546875 21.953125 -10.835938 21.546875 -11.171875 C 21.148438 -11.515625 20.75 -11.929688 20.34375 -12.421875 C 19.945312 -12.921875 19.625 -13.414062 19.375 -13.90625 C 18.632812 -15.519531 18.265625 -19.664062 18.265625 -26.34375 L 18.265625 -29.765625 C 18.265625 -37.679688 18.757812 -44.019531 19.75 -48.78125 C 20.738281 -53.539062 22.78125 -56.539062 25.875 -57.78125 C 27.113281 -53.632812 27.734375 -44.082031 27.734375 -29.125 C 27.671875 -26.21875 27.3125 -22.722656 26.65625 -18.640625 C 26.007812 -14.554688 25.128906 -11.523438 24.015625 -9.546875 Z M 24.015625 -9.546875 "/></g></g></g><g fill="#000000" fill-opacity="1"><g transform="translate(57.750281, 443.247287)"><g><path d="M 35.984375 -59.25 C 35.984375 -62.15625 33.910156 -64.535156 29.765625 -66.390625 C 27.359375 -67.441406 25.007812 -67.96875 22.71875 -67.96875 C 19.5625 -67.96875 16.992188 -66.578125 15.015625 -63.796875 C 14.273438 -64.109375 13.566406 -64.265625 12.890625 -64.265625 C 10.660156 -64.265625 8.726562 -62.960938 7.09375 -60.359375 C 5.457031 -57.765625 4.640625 -55.234375 4.640625 -52.765625 C 4.640625 -51.523438 4.804688 -50.175781 5.140625 -48.71875 C 5.484375 -47.269531 5.851562 -46.035156 6.25 -45.015625 C 6.65625 -44.003906 7.179688 -42.691406 7.828125 -41.078125 C 8.484375 -39.472656 8.9375 -38.332031 9.1875 -37.65625 C 10.050781 -35.113281 10.820312 -33.257812 11.5 -32.09375 C 15.582031 -23.988281 18.207031 -18.269531 19.375 -14.9375 C 20.0625 -13.320312 20.40625 -11.617188 20.40625 -9.828125 C 20.40625 -8.410156 20.28125 -6.957031 20.03125 -5.46875 C 18.976562 -6.457031 17.679688 -6.953125 16.140625 -6.953125 C 14.460938 -6.953125 13.097656 -6.363281 12.046875 -5.1875 C 11.003906 -4.019531 10.484375 -2.691406 10.484375 -1.203125 C 10.484375 1.023438 11.53125 2.878906 13.625 4.359375 C 15.726562 5.835938 18.203125 6.578125 21.046875 6.578125 C 27.171875 6.578125 31.222656 5.15625 33.203125 2.3125 C 35.179688 -0.53125 36.171875 -5.378906 36.171875 -12.234375 C 36.171875 -19.898438 33.296875 -30.503906 27.546875 -44.046875 C 26.554688 -46.273438 25.90625 -47.804688 25.59375 -48.640625 C 25.28125 -49.472656 24.984375 -50.550781 24.703125 -51.875 C 24.429688 -53.207031 24.296875 -54.648438 24.296875 -56.203125 C 24.972656 -55.953125 25.46875 -55.703125 25.78125 -55.453125 C 27.507812 -54.210938 28.960938 -53.59375 30.140625 -53.59375 C 31.804688 -53.59375 33.195312 -54.148438 34.3125 -55.265625 C 35.425781 -56.378906 35.984375 -57.707031 35.984375 -59.25 Z M 35.984375 -59.25 "/></g></g></g><g fill="#000000" fill-opacity="1"><g transform="translate(111.255176, 443.247287)"><g><path d="M 24.109375 2.59375 C 25.222656 3.03125 26.519531 3.25 28 3.25 C 30.601562 3.25 32.863281 2.320312 34.78125 0.46875 C 36.695312 -1.382812 38.175781 -3.945312 39.21875 -7.21875 C 40.269531 -10.5 41.023438 -14.023438 41.484375 -17.796875 C 41.953125 -21.578125 42.1875 -25.660156 42.1875 -30.046875 C 42.1875 -35.546875 42.25 -42.46875 42.375 -50.8125 C 42.5 -59.164062 42.5625 -64.175781 42.5625 -65.84375 C 42.5625 -67.445312 42.019531 -68.804688 40.9375 -69.921875 C 39.851562 -71.035156 38.507812 -71.59375 36.90625 -71.59375 C 35.300781 -71.59375 33.941406 -71.035156 32.828125 -69.921875 C 31.710938 -68.804688 31.15625 -67.445312 31.15625 -65.84375 C 31.15625 -62.007812 31.09375 -58.71875 30.96875 -55.96875 C 30.84375 -53.21875 30.78125 -50.789062 30.78125 -48.6875 L 30.78125 -25.3125 C 30.78125 -22.28125 30.546875 -19.742188 30.078125 -17.703125 C 29.617188 -15.671875 28.710938 -12.769531 27.359375 -9 C 24.578125 -13.320312 23.1875 -19.441406 23.1875 -27.359375 C 23.1875 -36.816406 23.21875 -44.757812 23.28125 -51.1875 C 23.34375 -57.613281 23.375 -61.753906 23.375 -63.609375 C 23.375 -65.160156 22.878906 -66.429688 21.890625 -67.421875 C 21.578125 -68.710938 20.878906 -69.757812 19.796875 -70.5625 C 18.710938 -71.375 17.582031 -71.78125 16.40625 -71.78125 C 14.0625 -71.78125 12.066406 -70.445312 10.421875 -67.78125 C 8.785156 -65.125 7.566406 -61.507812 6.765625 -56.9375 C 5.960938 -52.363281 5.40625 -47.816406 5.09375 -43.296875 C 4.789062 -38.785156 4.640625 -33.90625 4.640625 -28.65625 L 4.640625 -22.15625 C 4.640625 -18.320312 4.914062 -15.570312 5.46875 -13.90625 C 6.644531 -9.582031 8.820312 -5.609375 12 -1.984375 C 15.1875 1.628906 18.328125 3.4375 21.421875 3.4375 C 22.285156 3.4375 23.179688 3.15625 24.109375 2.59375 Z M 24.109375 2.59375 "/></g></g></g><g fill="#000000" fill-opacity="1"><g transform="translate(171.158143, 443.247287)"><g><path d="M 47.484375 0.09375 C 47.484375 1.695312 46.941406 3.039062 45.859375 4.125 C 44.773438 5.207031 43.429688 5.75 41.828125 5.75 C 40.773438 5.75 39.921875 5.578125 39.265625 5.234375 C 38.617188 4.898438 38.109375 4.5 37.734375 4.03125 C 37.367188 3.570312 36.644531 2.535156 35.5625 0.921875 C 34.476562 -0.679688 33.441406 -2.164062 32.453125 -3.53125 C 31.335938 -5.007812 29.679688 -7.679688 27.484375 -11.546875 C 25.296875 -15.410156 23.769531 -18.363281 22.90625 -20.40625 L 21.796875 -19.84375 C 21.796875 -18.851562 21.914062 -16.628906 22.15625 -13.171875 C 22.40625 -7.722656 22.53125 -4.722656 22.53125 -4.171875 C 22.53125 -2.253906 22.328125 -1.015625 21.921875 -0.453125 C 21.523438 0.0976562 20.675781 0.375 19.375 0.375 C 19.132812 0.375 18.703125 0.3125 18.078125 0.1875 C 17.398438 0.375 16.785156 0.46875 16.234375 0.46875 C 14.128906 0.46875 12.148438 -0.953125 10.296875 -3.796875 C 8.441406 -6.640625 7.035156 -9.914062 6.078125 -13.625 C 5.117188 -17.34375 4.640625 -20.773438 4.640625 -23.921875 C 4.640625 -32.828125 4.789062 -39.816406 5.09375 -44.890625 C 5.09375 -46.984375 5.445312 -50.921875 6.15625 -56.703125 C 6.875 -62.484375 7.476562 -65.960938 7.96875 -67.140625 C 9.394531 -70.234375 11.34375 -71.78125 13.8125 -71.78125 C 14.5 -71.78125 15.242188 -71.625 16.046875 -71.3125 C 16.847656 -71 17.460938 -70.535156 17.890625 -69.921875 C 22.222656 -69.921875 25.222656 -69.671875 26.890625 -69.171875 C 28.554688 -68.679688 30.410156 -67.601562 32.453125 -65.9375 C 36.785156 -62.351562 38.953125 -57.53125 38.953125 -51.46875 C 38.953125 -47.695312 38.546875 -44.804688 37.734375 -42.796875 C 36.929688 -40.785156 34.738281 -36.78125 31.15625 -30.78125 C 35.664062 -20.09375 39.625 -12.675781 43.03125 -8.53125 C 46 -4.320312 47.484375 -1.445312 47.484375 0.09375 Z M 26.890625 -45.4375 C 27.328125 -46.238281 27.546875 -47.445312 27.546875 -49.0625 L 27.546875 -51.46875 C 27.546875 -51.894531 27.484375 -52.546875 27.359375 -53.421875 C 27.359375 -53.535156 27.34375 -53.6875 27.3125 -53.875 C 27.28125 -54.0625 27.234375 -54.21875 27.171875 -54.34375 C 26.429688 -55.695312 25.78125 -56.625 25.21875 -57.125 L 20.953125 -59.4375 C 20.460938 -54.3125 20.21875 -49.800781 20.21875 -45.90625 C 20.21875 -44.726562 20.28125 -42.53125 20.40625 -39.3125 C 21.269531 -39.6875 22.363281 -40.460938 23.6875 -41.640625 C 25.019531 -42.816406 26.085938 -44.082031 26.890625 -45.4375 Z M 26.890625 -45.4375 "/></g></g></g><g fill="#000000" fill-opacity="1"><g transform="translate(235.975557, 443.247287)"><g><path d="M 47.484375 0.09375 C 47.484375 1.695312 46.941406 3.039062 45.859375 4.125 C 44.773438 5.207031 43.429688 5.75 41.828125 5.75 C 40.773438 5.75 39.921875 5.578125 39.265625 5.234375 C 38.617188 4.898438 38.109375 4.5 37.734375 4.03125 C 37.367188 3.570312 36.644531 2.535156 35.5625 0.921875 C 34.476562 -0.679688 33.441406 -2.164062 32.453125 -3.53125 C 31.335938 -5.007812 29.679688 -7.679688 27.484375 -11.546875 C 25.296875 -15.410156 23.769531 -18.363281 22.90625 -20.40625 L 21.796875 -19.84375 C 21.796875 -18.851562 21.914062 -16.628906 22.15625 -13.171875 C 22.40625 -7.722656 22.53125 -4.722656 22.53125 -4.171875 C 22.53125 -2.253906 22.328125 -1.015625 21.921875 -0.453125 C 21.523438 0.0976562 20.675781 0.375 19.375 0.375 C 19.132812 0.375 18.703125 0.3125 18.078125 0.1875 C 17.398438 0.375 16.785156 0.46875 16.234375 0.46875 C 14.128906 0.46875 12.148438 -0.953125 10.296875 -3.796875 C 8.441406 -6.640625 7.035156 -9.914062 6.078125 -13.625 C 5.117188 -17.34375 4.640625 -20.773438 4.640625 -23.921875 C 4.640625 -32.828125 4.789062 -39.816406 5.09375 -44.890625 C 5.09375 -46.984375 5.445312 -50.921875 6.15625 -56.703125 C 6.875 -62.484375 7.476562 -65.960938 7.96875 -67.140625 C 9.394531 -70.234375 11.34375 -71.78125 13.8125 -71.78125 C 14.5 -71.78125 15.242188 -71.625 16.046875 -71.3125 C 16.847656 -71 17.460938 -70.535156 17.890625 -69.921875 C 22.222656 -69.921875 25.222656 -69.671875 26.890625 -69.171875 C 28.554688 -68.679688 30.410156 -67.601562 32.453125 -65.9375 C 36.785156 -62.351562 38.953125 -57.53125 38.953125 -51.46875 C 38.953125 -47.695312 38.546875 -44.804688 37.734375 -42.796875 C 36.929688 -40.785156 34.738281 -36.78125 31.15625 -30.78125 C 35.664062 -20.09375 39.625 -12.675781 43.03125 -8.53125 C 46 -4.320312 47.484375 -1.445312 47.484375 0.09375 Z M 26.890625 -45.4375 C 27.328125 -46.238281 27.546875 -47.445312 27.546875 -49.0625 L 27.546875 -51.46875 C 27.546875 -51.894531 27.484375 -52.546875 27.359375 -53.421875 C 27.359375 -53.535156 27.34375 -53.6875 27.3125 -53.875 C 27.28125 -54.0625 27.234375 -54.21875 27.171875 -54.34375 C 26.429688 -55.695312 25.78125 -56.625 25.21875 -57.125 L 20.953125 -59.4375 C 20.460938 -54.3125 20.21875 -49.800781 20.21875 -45.90625 C 20.21875 -44.726562 20.28125 -42.53125 20.40625 -39.3125 C 21.269531 -39.6875 22.363281 -40.460938 23.6875 -41.640625 C 25.019531 -42.816406 26.085938 -44.082031 26.890625 -45.4375 Z M 26.890625 -45.4375 "/></g></g></g><g fill="#000000" fill-opacity="1"><g transform="translate(300.79297, 443.247287)"><g><path d="M 18.921875 -66.484375 C 17.742188 -67.472656 16.441406 -67.96875 15.015625 -67.96875 C 13.597656 -67.96875 12.332031 -67.457031 11.21875 -66.4375 C 10.101562 -65.414062 9.484375 -64.195312 9.359375 -62.78125 C 9.296875 -62.039062 9.175781 -61.484375 9 -61.109375 C 7.082031 -54.179688 5.875 -48.894531 5.375 -45.25 C 4.882812 -41.601562 4.640625 -36.132812 4.640625 -28.84375 L 4.640625 -11.125 C 4.640625 -8.65625 5.164062 -6.707031 6.21875 -5.28125 C 7.269531 -3.863281 8.722656 -3.15625 10.578125 -3.15625 C 12.117188 -3.15625 13.445312 -3.710938 14.5625 -4.828125 C 16.289062 -2.660156 18.175781 -1.203125 20.21875 -0.453125 C 22.257812 0.285156 25.132812 0.65625 28.84375 0.65625 C 31.25 0.65625 33.285156 0.113281 34.953125 -0.96875 C 36.628906 -2.050781 37.46875 -3.613281 37.46875 -5.65625 C 37.46875 -7.320312 36.878906 -8.679688 35.703125 -9.734375 C 34.523438 -10.785156 33.164062 -11.3125 31.625 -11.3125 C 30.757812 -11.3125 29.957031 -11.125 29.21875 -10.75 C 27.238281 -10.75 25.503906 -10.90625 24.015625 -11.21875 C 24.015625 -12.457031 24 -13.910156 23.96875 -15.578125 C 23.9375 -17.242188 23.921875 -18.359375 23.921875 -18.921875 C 23.921875 -20.035156 23.984375 -22.878906 24.109375 -27.453125 L 28.46875 -27.453125 C 30.007812 -27.453125 31.335938 -28.003906 32.453125 -29.109375 C 33.566406 -30.222656 34.125 -31.550781 34.125 -33.09375 C 34.125 -34.644531 33.566406 -35.992188 32.453125 -37.140625 C 31.335938 -38.285156 30.007812 -38.859375 28.46875 -38.859375 L 24.765625 -38.859375 C 25.253906 -46.953125 25.65625 -52.484375 25.96875 -55.453125 L 28.5625 -54.90625 C 30.289062 -54.46875 32.035156 -54.046875 33.796875 -53.640625 C 35.554688 -53.242188 36.410156 -53.046875 36.359375 -53.046875 C 37.835938 -53.046875 39.148438 -53.570312 40.296875 -54.625 C 41.441406 -55.675781 42.015625 -57.035156 42.015625 -58.703125 C 42.015625 -59.941406 41.65625 -61.050781 40.9375 -62.03125 C 40.226562 -63.019531 39.285156 -63.734375 38.109375 -64.171875 C 37.429688 -64.421875 36.503906 -64.679688 35.328125 -64.953125 C 34.148438 -65.234375 32.585938 -65.570312 30.640625 -65.96875 C 28.703125 -66.375 26.988281 -66.765625 25.5 -67.140625 C 24.082031 -67.453125 23.125 -67.609375 22.625 -67.609375 C 21.570312 -67.609375 20.707031 -67.421875 20.03125 -67.046875 C 19.351562 -66.671875 18.984375 -66.484375 18.921875 -66.484375 Z M 18.921875 -66.484375 "/></g></g></g><g fill="#000000" fill-opacity="1"><g transform="translate(360.139596, 443.247287)"><g><path d="M 41.828125 -23.546875 C 43.367188 -23.546875 44.710938 -22.988281 45.859375 -21.875 C 47.003906 -20.769531 47.578125 -19.441406 47.578125 -17.890625 C 47.578125 -16.347656 47.003906 -15.003906 45.859375 -13.859375 C 44.710938 -12.710938 43.367188 -12.140625 41.828125 -12.140625 L 40.890625 -12.140625 L 40.890625 -10.015625 L 41.359375 -8.90625 C 41.609375 -8.34375 41.734375 -7.691406 41.734375 -6.953125 C 41.734375 -5.410156 41.175781 -4.066406 40.0625 -2.921875 C 38.945312 -1.773438 37.585938 -1.203125 35.984375 -1.203125 C 34.066406 -1.203125 32.503906 -2.066406 31.296875 -3.796875 C 30.085938 -5.535156 29.484375 -7.578125 29.484375 -9.921875 L 29.484375 -12.140625 L 19.203125 -12.140625 C 18.890625 -10.660156 18.515625 -9.097656 18.078125 -7.453125 C 17.648438 -5.816406 17.4375 -4.972656 17.4375 -4.921875 C 17.0625 -3.242188 16.535156 -1.972656 15.859375 -1.109375 C 15.179688 -0.242188 14.128906 0.1875 12.703125 0.1875 C 11.898438 0.1875 11.222656 0.0625 10.671875 -0.1875 C 9.492188 0.613281 8.5625 1.015625 7.875 1.015625 C 7.070312 1.015625 6.46875 0.660156 6.0625 -0.046875 C 5.664062 -0.753906 5.253906 -1.789062 4.828125 -3.15625 C 4.703125 -3.644531 4.640625 -4.234375 4.640625 -4.921875 C 4.640625 -9.859375 6.273438 -19.882812 9.546875 -35 C 12.828125 -50.125 15.457031 -59.628906 17.4375 -63.515625 C 17.738281 -64.816406 18.367188 -65.867188 19.328125 -66.671875 C 20.285156 -67.472656 21.507812 -67.875 23 -67.875 C 23.613281 -67.875 24.289062 -67.785156 25.03125 -67.609375 C 26.144531 -69.523438 27.785156 -70.484375 29.953125 -70.484375 C 33.785156 -70.484375 35.703125 -67.882812 35.703125 -62.6875 L 36.90625 -52.859375 C 37.707031 -46.304688 38.507812 -39.785156 39.3125 -33.296875 L 40.53125 -23.546875 Z M 21.890625 -23.546875 L 29.125 -23.546875 C 28.375 -32.828125 27.691406 -39.132812 27.078125 -42.46875 L 25.96875 -41.734375 C 25.84375 -41.109375 24.484375 -35.046875 21.890625 -23.546875 Z M 21.890625 -23.546875 "/></g></g></g><g fill="#000000" fill-opacity="1"><g transform="translate(425.049747, 443.247287)"><g><path d="M 15.484375 -70.296875 L 15.109375 -70.296875 C 14.179688 -71.222656 13.070312 -71.78125 11.78125 -71.96875 C 10.226562 -72.082031 8.832031 -71.644531 7.59375 -70.65625 C 6.363281 -69.675781 5.65625 -68.441406 5.46875 -66.953125 C 4.914062 -62.628906 4.640625 -57.960938 4.640625 -52.953125 L 4.640625 -8.53125 C 4.640625 -6.988281 5.207031 -5.644531 6.34375 -4.5 C 7.488281 -3.351562 8.835938 -2.78125 10.390625 -2.78125 C 10.691406 -2.78125 11.15625 -2.84375 11.78125 -2.96875 C 12.957031 -0.800781 15.007812 0.742188 17.9375 1.671875 C 20.875 2.597656 25.003906 3.0625 30.328125 3.0625 C 31.867188 3.0625 33.210938 2.488281 34.359375 1.34375 C 35.503906 0.195312 36.078125 -1.144531 36.078125 -2.6875 C 36.078125 -4.226562 35.503906 -5.554688 34.359375 -6.671875 C 33.210938 -7.785156 31.867188 -8.34375 30.328125 -8.34375 C 24.765625 -8.34375 21.828125 -8.648438 21.515625 -9.265625 C 21.515625 -12.984375 21.53125 -16.710938 21.5625 -20.453125 C 21.59375 -24.191406 21.609375 -26.738281 21.609375 -28.09375 C 21.609375 -31.925781 21.53125 -36.378906 21.375 -41.453125 C 21.21875 -46.523438 21.140625 -50.296875 21.140625 -52.765625 L 21.140625 -64.546875 C 21.140625 -66.085938 20.582031 -67.429688 19.46875 -68.578125 C 18.363281 -69.722656 17.035156 -70.296875 15.484375 -70.296875 Z M 15.484375 -70.296875 "/></g></g></g><g fill="#000000" fill-opacity="1"><g transform="translate(478.461961, 443.247287)"><g><path d="M 8.90625 -55.640625 L 8.90625 -45.90625 C 8.90625 -41.144531 9.085938 -33.800781 9.453125 -23.875 C 9.828125 -13.957031 10.203125 -8.535156 10.578125 -7.609375 C 8.835938 -7.421875 7.472656 -6.785156 6.484375 -5.703125 C 5.492188 -4.617188 5 -3.367188 5 -1.953125 C 5 0.0234375 5.679688 1.429688 7.046875 2.265625 C 8.410156 3.109375 10.546875 3.53125 13.453125 3.53125 C 14.003906 3.53125 15.421875 3.296875 17.703125 2.828125 C 19.992188 2.367188 21.664062 1.921875 22.71875 1.484375 C 25.5 0.367188 26.890625 -1.484375 26.890625 -4.078125 C 26.890625 -4.453125 26.707031 -5.285156 26.34375 -6.578125 C 27.082031 -7.566406 27.453125 -8.710938 27.453125 -10.015625 C 27.453125 -17.679688 27.546875 -22.78125 27.734375 -25.3125 C 27.785156 -26.550781 28.046875 -33.257812 28.515625 -45.4375 C 28.984375 -57.613281 29.21875 -64.101562 29.21875 -64.90625 C 29.21875 -66.457031 28.644531 -67.800781 27.5 -68.9375 C 26.351562 -70.082031 25.007812 -70.65625 23.46875 -70.65625 C 22.164062 -70.65625 20.988281 -70.222656 19.9375 -69.359375 C 19.320312 -69.242188 18.519531 -69.1875 17.53125 -69.1875 C 16.96875 -69.1875 16.378906 -69.210938 15.765625 -69.265625 C 15.148438 -69.328125 14.78125 -69.359375 14.65625 -69.359375 C 13.414062 -69.359375 12.300781 -68.957031 11.3125 -68.15625 C 9.394531 -67.90625 7.800781 -67.082031 6.53125 -65.6875 C 5.269531 -64.300781 4.640625 -62.804688 4.640625 -61.203125 C 4.640625 -59.898438 5.039062 -58.738281 5.84375 -57.71875 C 6.644531 -56.707031 7.664062 -56.015625 8.90625 -55.640625 Z M 8.90625 -55.640625 "/></g></g></g><g fill="#000000" fill-opacity="1"><g transform="translate(525.012458, 443.247287)"><g><path d="M 35.984375 -59.25 C 35.984375 -62.15625 33.910156 -64.535156 29.765625 -66.390625 C 27.359375 -67.441406 25.007812 -67.96875 22.71875 -67.96875 C 19.5625 -67.96875 16.992188 -66.578125 15.015625 -63.796875 C 14.273438 -64.109375 13.566406 -64.265625 12.890625 -64.265625 C 10.660156 -64.265625 8.726562 -62.960938 7.09375 -60.359375 C 5.457031 -57.765625 4.640625 -55.234375 4.640625 -52.765625 C 4.640625 -51.523438 4.804688 -50.175781 5.140625 -48.71875 C 5.484375 -47.269531 5.851562 -46.035156 6.25 -45.015625 C 6.65625 -44.003906 7.179688 -42.691406 7.828125 -41.078125 C 8.484375 -39.472656 8.9375 -38.332031 9.1875 -37.65625 C 10.050781 -35.113281 10.820312 -33.257812 11.5 -32.09375 C 15.582031 -23.988281 18.207031 -18.269531 19.375 -14.9375 C 20.0625 -13.320312 20.40625 -11.617188 20.40625 -9.828125 C 20.40625 -8.410156 20.28125 -6.957031 20.03125 -5.46875 C 18.976562 -6.457031 17.679688 -6.953125 16.140625 -6.953125 C 14.460938 -6.953125 13.097656 -6.363281 12.046875 -5.1875 C 11.003906 -4.019531 10.484375 -2.691406 10.484375 -1.203125 C 10.484375 1.023438 11.53125 2.878906 13.625 4.359375 C 15.726562 5.835938 18.203125 6.578125 21.046875 6.578125 C 27.171875 6.578125 31.222656 5.15625 33.203125 2.3125 C 35.179688 -0.53125 36.171875 -5.378906 36.171875 -12.234375 C 36.171875 -19.898438 33.296875 -30.503906 27.546875 -44.046875 C 26.554688 -46.273438 25.90625 -47.804688 25.59375 -48.640625 C 25.28125 -49.472656 24.984375 -50.550781 24.703125 -51.875 C 24.429688 -53.207031 24.296875 -54.648438 24.296875 -56.203125 C 24.972656 -55.953125 25.46875 -55.703125 25.78125 -55.453125 C 27.507812 -54.210938 28.960938 -53.59375 30.140625 -53.59375 C 31.804688 -53.59375 33.195312 -54.148438 34.3125 -55.265625 C 35.425781 -56.378906 35.984375 -57.707031 35.984375 -59.25 Z M 35.984375 -59.25 "/></g></g></g><g fill="#000000" fill-opacity="1"><g transform="translate(578.51737, 443.247287)"><g><path d="M 10.484375 -54.34375 C 11.347656 -54.34375 12.179688 -54.554688 12.984375 -54.984375 C 14.710938 -55.734375 15.578125 -55.921875 15.578125 -55.546875 C 15.515625 -54.742188 15.484375 -53.507812 15.484375 -51.84375 C 15.484375 -47.882812 15.671875 -44.234375 16.046875 -40.890625 C 17.160156 -29.578125 17.804688 -17.675781 17.984375 -5.1875 C 17.984375 -3.707031 18.476562 -2.425781 19.46875 -1.34375 C 20.457031 -0.257812 21.664062 0.375 23.09375 0.5625 C 23.519531 1.550781 24.226562 2.382812 25.21875 3.0625 C 26.207031 3.738281 27.257812 4.078125 28.375 4.078125 C 29.914062 4.078125 31.242188 3.503906 32.359375 2.359375 C 33.472656 1.222656 34.03125 -0.117188 34.03125 -1.671875 C 34.03125 -2.097656 33.90625 -6.867188 33.65625 -15.984375 C 33.414062 -25.109375 33.296875 -33.628906 33.296875 -41.546875 C 33.296875 -47.109375 33.601562 -52.050781 34.21875 -56.375 L 38.203125 -56.015625 C 38.203125 -55.953125 38.664062 -56.164062 39.59375 -56.65625 C 40.519531 -57.15625 41.460938 -57.867188 42.421875 -58.796875 C 43.378906 -59.722656 43.859375 -60.648438 43.859375 -61.578125 C 43.859375 -64.234375 42.789062 -65.929688 40.65625 -66.671875 C 38.53125 -67.410156 34.992188 -67.78125 30.046875 -67.78125 L 24.859375 -67.78125 C 21.953125 -67.78125 19.414062 -67.6875 17.25 -67.5 C 15.082031 -67.320312 12.976562 -66.96875 10.9375 -66.4375 C 8.894531 -65.914062 7.332031 -65.128906 6.25 -64.078125 C 5.175781 -63.023438 4.640625 -61.695312 4.640625 -60.09375 C 4.640625 -58.425781 5.222656 -57.050781 6.390625 -55.96875 C 7.566406 -54.882812 8.929688 -54.34375 10.484375 -54.34375 Z M 10.484375 -54.34375 "/></g></g></g><g fill="#000000" fill-opacity="1"><g transform="translate(639.71851, 443.247287)"><g><path d="M 41.828125 -23.546875 C 43.367188 -23.546875 44.710938 -22.988281 45.859375 -21.875 C 47.003906 -20.769531 47.578125 -19.441406 47.578125 -17.890625 C 47.578125 -16.347656 47.003906 -15.003906 45.859375 -13.859375 C 44.710938 -12.710938 43.367188 -12.140625 41.828125 -12.140625 L 40.890625 -12.140625 L 40.890625 -10.015625 L 41.359375 -8.90625 C 41.609375 -8.34375 41.734375 -7.691406 41.734375 -6.953125 C 41.734375 -5.410156 41.175781 -4.066406 40.0625 -2.921875 C 38.945312 -1.773438 37.585938 -1.203125 35.984375 -1.203125 C 34.066406 -1.203125 32.503906 -2.066406 31.296875 -3.796875 C 30.085938 -5.535156 29.484375 -7.578125 29.484375 -9.921875 L 29.484375 -12.140625 L 19.203125 -12.140625 C 18.890625 -10.660156 18.515625 -9.097656 18.078125 -7.453125 C 17.648438 -5.816406 17.4375 -4.972656 17.4375 -4.921875 C 17.0625 -3.242188 16.535156 -1.972656 15.859375 -1.109375 C 15.179688 -0.242188 14.128906 0.1875 12.703125 0.1875 C 11.898438 0.1875 11.222656 0.0625 10.671875 -0.1875 C 9.492188 0.613281 8.5625 1.015625 7.875 1.015625 C 7.070312 1.015625 6.46875 0.660156 6.0625 -0.046875 C 5.664062 -0.753906 5.253906 -1.789062 4.828125 -3.15625 C 4.703125 -3.644531 4.640625 -4.234375 4.640625 -4.921875 C 4.640625 -9.859375 6.273438 -19.882812 9.546875 -35 C 12.828125 -50.125 15.457031 -59.628906 17.4375 -63.515625 C 17.738281 -64.816406 18.367188 -65.867188 19.328125 -66.671875 C 20.285156 -67.472656 21.507812 -67.875 23 -67.875 C 23.613281 -67.875 24.289062 -67.785156 25.03125 -67.609375 C 26.144531 -69.523438 27.785156 -70.484375 29.953125 -70.484375 C 33.785156 -70.484375 35.703125 -67.882812 35.703125 -62.6875 L 36.90625 -52.859375 C 37.707031 -46.304688 38.507812 -39.785156 39.3125 -33.296875 L 40.53125 -23.546875 Z M 21.890625 -23.546875 L 29.125 -23.546875 C 28.375 -32.828125 27.691406 -39.132812 27.078125 -42.46875 L 25.96875 -41.734375 C 25.84375 -41.109375 24.484375 -35.046875 21.890625 -23.546875 Z M 21.890625 -23.546875 "/></g></g></g></svg>