<svg xmlns="http://www.w3.org/2000/svg" xmlns:xlink="http://www.w3.org/1999/xlink" width="1080" zoomAndPan="magnify" viewBox="0 0 810 809.999993" height="1080" preserveAspectRatio="xMidYMid meet" version="1.0"><defs><g/></defs><g fill="#000000" fill-opacity="1"><g transform="translate(99.426531, 446.238897)"><g><path d="M 44.3125 -82.765625 C 44.3125 -80.015625 44.65625 -77.144531 45.34375 -74.15625 C 46.1875 -70.175781 46.609375 -59.921875 46.609375 -43.390625 C 45.304688 -43.546875 40.023438 -43.773438 30.765625 -44.078125 C 29.847656 -62.828125 29.390625 -74.691406 29.390625 -79.671875 C 29.390625 -81.578125 28.695312 -83.238281 27.3125 -84.65625 C 25.9375 -86.070312 24.296875 -86.78125 22.390625 -86.78125 C 20.628906 -86.78125 19.019531 -86.128906 17.5625 -84.828125 C 16.570312 -85.367188 15.539062 -85.640625 14.46875 -85.640625 C 12.550781 -85.640625 10.882812 -84.929688 9.46875 -83.515625 C 8.050781 -82.097656 7.34375 -80.429688 7.34375 -78.515625 C 7.34375 -77.753906 7.070312 -73.375 6.53125 -65.375 C 6 -57.375 5.734375 -51.539062 5.734375 -47.875 C 5.734375 -30.570312 6.3125 -19.859375 7.46875 -15.734375 C 8.382812 -12.585938 9.085938 -10.210938 9.578125 -8.609375 C 10.078125 -7.003906 10.765625 -5.109375 11.640625 -2.921875 C 12.523438 -0.742188 13.367188 0.878906 14.171875 1.953125 C 14.972656 3.023438 15.96875 3.941406 17.15625 4.703125 C 18.34375 5.472656 19.664062 5.859375 21.125 5.859375 C 23.039062 5.859375 24.6875 5.164062 26.0625 3.78125 C 27.4375 2.40625 28.085938 0.644531 28.015625 -1.5 C 29.546875 -1.957031 30.785156 -2.832031 31.734375 -4.125 C 32.691406 -5.425781 33.171875 -6.84375 33.171875 -8.375 C 33.171875 -8.457031 33.09375 -8.859375 32.9375 -9.578125 C 32.789062 -10.304688 32.601562 -11.335938 32.375 -12.671875 C 32.144531 -14.015625 31.914062 -15.507812 31.6875 -17.15625 C 31.457031 -18.800781 31.265625 -20.769531 31.109375 -23.0625 C 30.953125 -25.363281 30.875 -27.625 30.875 -29.84375 C 30.957031 -29.84375 31.265625 -29.820312 31.796875 -29.78125 C 32.335938 -29.75 33.082031 -29.691406 34.03125 -29.609375 C 34.988281 -29.535156 36.0625 -29.457031 37.25 -29.375 C 38.4375 -29.300781 39.867188 -29.242188 41.546875 -29.203125 C 43.234375 -29.171875 44.921875 -29.15625 46.609375 -29.15625 C 46.609375 -25.40625 46.875 -21.003906 47.40625 -15.953125 C 47.945312 -10.898438 48.21875 -7.570312 48.21875 -5.96875 C 48.21875 -3.976562 48.90625 -2.296875 50.28125 -0.921875 C 51.65625 0.453125 53.335938 1.140625 55.328125 1.140625 C 57.316406 1.140625 58.976562 0.453125 60.3125 -0.921875 C 61.65625 -2.296875 62.328125 -3.976562 62.328125 -5.96875 C 62.328125 -7.882812 62.210938 -9.875 61.984375 -11.9375 C 61.148438 -17.21875 60.734375 -26.210938 60.734375 -38.921875 L 60.734375 -52.578125 C 60.734375 -63.753906 59.96875 -73.28125 58.4375 -81.15625 L 58.4375 -82.765625 C 58.4375 -84.679688 57.742188 -86.328125 56.359375 -87.703125 C 54.984375 -89.078125 53.335938 -89.765625 51.421875 -89.765625 C 49.515625 -89.765625 47.851562 -89.078125 46.4375 -87.703125 C 45.019531 -86.328125 44.3125 -84.679688 44.3125 -82.765625 Z M 44.3125 -82.765625 "/></g></g></g><g fill="#000000" fill-opacity="1"><g transform="translate(183.226892, 446.238897)"><g><path d="M 11.015625 -68.875 L 11.015625 -56.828125 C 11.015625 -50.929688 11.242188 -41.84375 11.703125 -29.5625 C 12.160156 -17.28125 12.625 -10.5625 13.09375 -9.40625 C 10.945312 -9.175781 9.257812 -8.390625 8.03125 -7.046875 C 6.8125 -5.710938 6.203125 -4.164062 6.203125 -2.40625 C 6.203125 0.0390625 7.039062 1.78125 8.71875 2.8125 C 10.40625 3.84375 13.046875 4.359375 16.640625 4.359375 C 17.328125 4.359375 19.085938 4.070312 21.921875 3.5 C 24.753906 2.925781 26.820312 2.375 28.125 1.84375 C 31.570312 0.457031 33.296875 -1.835938 33.296875 -5.046875 C 33.296875 -5.503906 33.066406 -6.539062 32.609375 -8.15625 C 33.523438 -9.375 33.984375 -10.785156 33.984375 -12.390625 C 33.984375 -21.890625 34.097656 -28.207031 34.328125 -31.34375 C 34.398438 -32.875 34.722656 -41.175781 35.296875 -56.25 C 35.867188 -71.320312 36.15625 -79.359375 36.15625 -80.359375 C 36.15625 -82.273438 35.445312 -83.9375 34.03125 -85.34375 C 32.613281 -86.757812 30.953125 -87.46875 29.046875 -87.46875 C 27.441406 -87.46875 25.988281 -86.9375 24.6875 -85.875 C 23.914062 -85.71875 22.921875 -85.640625 21.703125 -85.640625 C 21.003906 -85.640625 20.273438 -85.675781 19.515625 -85.75 C 18.753906 -85.832031 18.296875 -85.875 18.140625 -85.875 C 16.609375 -85.875 15.226562 -85.375 14 -84.375 C 11.632812 -84.070312 9.664062 -83.054688 8.09375 -81.328125 C 6.519531 -79.609375 5.734375 -77.753906 5.734375 -75.765625 C 5.734375 -74.160156 6.226562 -72.722656 7.21875 -71.453125 C 8.21875 -70.191406 9.484375 -69.332031 11.015625 -68.875 Z M 11.015625 -68.875 "/></g></g></g><g fill="#000000" fill-opacity="1"><g transform="translate(240.85487, 446.238897)"><g><path d="M 44.546875 -73.359375 C 44.546875 -76.953125 41.976562 -79.894531 36.84375 -82.1875 C 33.863281 -83.488281 30.957031 -84.140625 28.125 -84.140625 C 24.21875 -84.140625 21.039062 -82.421875 18.59375 -78.984375 C 17.675781 -79.359375 16.796875 -79.546875 15.953125 -79.546875 C 13.203125 -79.546875 10.8125 -77.9375 8.78125 -74.71875 C 6.75 -71.507812 5.734375 -68.375 5.734375 -65.3125 C 5.734375 -63.789062 5.941406 -62.128906 6.359375 -60.328125 C 6.785156 -58.523438 7.25 -56.992188 7.75 -55.734375 C 8.25 -54.472656 8.898438 -52.847656 9.703125 -50.859375 C 10.503906 -48.867188 11.054688 -47.453125 11.359375 -46.609375 C 12.429688 -43.472656 13.390625 -41.175781 14.234375 -39.71875 C 19.285156 -29.695312 22.539062 -22.617188 24 -18.484375 C 24.832031 -16.492188 25.25 -14.390625 25.25 -12.171875 C 25.25 -10.410156 25.097656 -8.609375 24.796875 -6.765625 C 23.492188 -7.992188 21.882812 -8.609375 19.96875 -8.609375 C 17.90625 -8.609375 16.222656 -7.878906 14.921875 -6.421875 C 13.617188 -4.972656 12.96875 -3.332031 12.96875 -1.5 C 12.96875 1.257812 14.269531 3.554688 16.875 5.390625 C 19.476562 7.234375 22.539062 8.15625 26.0625 8.15625 C 33.632812 8.15625 38.644531 6.394531 41.09375 2.875 C 43.539062 -0.644531 44.765625 -6.65625 44.765625 -15.15625 C 44.765625 -24.644531 41.207031 -37.769531 34.09375 -54.53125 C 32.875 -57.28125 32.070312 -59.171875 31.6875 -60.203125 C 31.300781 -61.242188 30.9375 -62.585938 30.59375 -64.234375 C 30.25 -65.878906 30.078125 -67.65625 30.078125 -69.5625 C 30.921875 -69.257812 31.53125 -68.957031 31.90625 -68.65625 C 34.050781 -67.125 35.851562 -66.359375 37.3125 -66.359375 C 39.375 -66.359375 41.09375 -67.046875 42.46875 -68.421875 C 43.851562 -69.796875 44.546875 -71.441406 44.546875 -73.359375 Z M 44.546875 -73.359375 "/></g></g></g><g fill="#000000" fill-opacity="1"><g transform="translate(307.092188, 446.238897)"><g><path d="M 12.96875 -67.265625 C 14.039062 -67.265625 15.078125 -67.535156 16.078125 -68.078125 C 18.210938 -68.992188 19.28125 -69.222656 19.28125 -68.765625 C 19.207031 -67.765625 19.171875 -66.234375 19.171875 -64.171875 C 19.171875 -59.273438 19.398438 -54.757812 19.859375 -50.625 C 21.234375 -36.625 22.035156 -21.890625 22.265625 -6.421875 C 22.265625 -4.585938 22.875 -3 24.09375 -1.65625 C 25.320312 -0.320312 26.816406 0.457031 28.578125 0.6875 C 29.117188 1.914062 30 2.945312 31.21875 3.78125 C 32.445312 4.625 33.75 5.046875 35.125 5.046875 C 37.039062 5.046875 38.6875 4.335938 40.0625 2.921875 C 41.4375 1.503906 42.125 -0.15625 42.125 -2.0625 C 42.125 -2.601562 41.972656 -8.515625 41.671875 -19.796875 C 41.367188 -31.085938 41.21875 -41.628906 41.21875 -51.421875 C 41.21875 -58.316406 41.597656 -64.441406 42.359375 -69.796875 L 47.296875 -69.34375 C 47.296875 -69.257812 47.867188 -69.523438 49.015625 -70.140625 C 50.160156 -70.753906 51.328125 -71.632812 52.515625 -72.78125 C 53.703125 -73.925781 54.296875 -75.070312 54.296875 -76.21875 C 54.296875 -79.507812 52.972656 -81.613281 50.328125 -82.53125 C 47.691406 -83.457031 43.3125 -83.921875 37.1875 -83.921875 L 30.765625 -83.921875 C 27.171875 -83.921875 24.03125 -83.804688 21.34375 -83.578125 C 18.664062 -83.347656 16.0625 -82.90625 13.53125 -82.25 C 11.007812 -81.601562 9.078125 -80.628906 7.734375 -79.328125 C 6.398438 -78.023438 5.734375 -76.378906 5.734375 -74.390625 C 5.734375 -72.316406 6.460938 -70.609375 7.921875 -69.265625 C 9.378906 -67.929688 11.0625 -67.265625 12.96875 -67.265625 Z M 12.96875 -67.265625 "/></g></g></g><g fill="#000000" fill-opacity="1"><g transform="translate(382.857186, 446.238897)"><g><path d="M 21.359375 -81.5 C 19.898438 -82.800781 18.253906 -83.453125 16.421875 -83.453125 C 14.503906 -83.453125 12.894531 -82.800781 11.59375 -81.5 C 9.070312 -78.976562 7.460938 -75.398438 6.765625 -70.765625 C 6.078125 -66.140625 5.734375 -57.09375 5.734375 -43.625 L 5.734375 -31.796875 C 5.734375 -21.921875 5.90625 -15.71875 6.25 -13.1875 C 6.59375 -10.664062 7.644531 -8.257812 9.40625 -5.96875 C 12.09375 -2.0625 14.960938 1.070312 18.015625 3.4375 C 19.242188 4.664062 21.539062 5.28125 24.90625 5.28125 C 30.957031 5.28125 35.929688 2.867188 39.828125 -1.953125 C 43.734375 -6.773438 46.109375 -12.859375 46.953125 -20.203125 C 47.710938 -27.472656 48.09375 -33.441406 48.09375 -38.109375 C 48.09375 -40.410156 48.128906 -43.679688 48.203125 -47.921875 C 48.285156 -52.171875 48.328125 -55.253906 48.328125 -57.171875 C 48.328125 -60.921875 48.226562 -64.113281 48.03125 -66.75 C 47.84375 -69.394531 47.382812 -72.035156 46.65625 -74.671875 C 45.9375 -77.316406 44.984375 -79.441406 43.796875 -81.046875 C 42.609375 -82.648438 40.960938 -83.988281 38.859375 -85.0625 C 36.753906 -86.132812 34.207031 -86.707031 31.21875 -86.78125 C 27.625 -86.78125 24.335938 -85.019531 21.359375 -81.5 Z M 29.734375 -11.828125 L 29.265625 -12.046875 C 28.960938 -12.203125 28.582031 -12.429688 28.125 -12.734375 C 27.664062 -13.046875 27.1875 -13.410156 26.6875 -13.828125 C 26.1875 -14.253906 25.6875 -14.769531 25.1875 -15.375 C 24.695312 -15.988281 24.300781 -16.601562 24 -17.21875 C 23.070312 -19.207031 22.609375 -24.335938 22.609375 -32.609375 L 22.609375 -36.84375 C 22.609375 -46.644531 23.21875 -54.488281 24.4375 -60.375 C 25.664062 -66.269531 28.195312 -69.984375 32.03125 -71.515625 C 33.5625 -66.390625 34.328125 -54.566406 34.328125 -36.046875 C 34.242188 -32.453125 33.800781 -28.128906 33 -23.078125 C 32.195312 -18.023438 31.109375 -14.273438 29.734375 -11.828125 Z M 29.734375 -11.828125 "/></g></g></g><g fill="#000000" fill-opacity="1"><g transform="translate(452.653063, 446.238897)"><g><path d="M 58.78125 0.109375 C 58.78125 2.097656 58.109375 3.765625 56.765625 5.109375 C 55.429688 6.453125 53.765625 7.125 51.765625 7.125 C 50.472656 7.125 49.421875 6.910156 48.609375 6.484375 C 47.804688 6.066406 47.175781 5.566406 46.71875 4.984375 C 46.257812 4.410156 45.359375 3.128906 44.015625 1.140625 C 42.679688 -0.847656 41.398438 -2.679688 40.171875 -4.359375 C 38.796875 -6.203125 36.75 -9.515625 34.03125 -14.296875 C 31.320312 -19.078125 29.429688 -22.726562 28.359375 -25.25 L 26.984375 -24.5625 C 26.984375 -23.34375 27.132812 -20.585938 27.4375 -16.296875 C 27.738281 -9.566406 27.890625 -5.859375 27.890625 -5.171875 C 27.890625 -2.796875 27.640625 -1.265625 27.140625 -0.578125 C 26.648438 0.109375 25.601562 0.453125 24 0.453125 C 23.6875 0.453125 23.148438 0.378906 22.390625 0.234375 C 21.546875 0.460938 20.78125 0.578125 20.09375 0.578125 C 17.488281 0.578125 15.035156 -1.179688 12.734375 -4.703125 C 10.441406 -8.222656 8.703125 -12.28125 7.515625 -16.875 C 6.328125 -21.46875 5.734375 -25.71875 5.734375 -29.625 C 5.734375 -40.632812 5.925781 -49.28125 6.3125 -55.5625 C 6.3125 -58.164062 6.75 -63.046875 7.625 -70.203125 C 8.507812 -77.359375 9.257812 -81.660156 9.875 -83.109375 C 11.632812 -86.941406 14.046875 -88.859375 17.109375 -88.859375 C 17.953125 -88.859375 18.867188 -88.664062 19.859375 -88.28125 C 20.859375 -87.894531 21.625 -87.320312 22.15625 -86.5625 C 27.507812 -86.5625 31.21875 -86.253906 33.28125 -85.640625 C 35.351562 -85.023438 37.648438 -83.6875 40.171875 -81.625 C 45.535156 -77.1875 48.21875 -71.21875 48.21875 -63.71875 C 48.21875 -59.039062 47.71875 -55.457031 46.71875 -52.96875 C 45.726562 -50.488281 43.015625 -45.535156 38.578125 -38.109375 C 44.160156 -24.867188 49.054688 -15.6875 53.265625 -10.5625 C 56.941406 -5.351562 58.78125 -1.796875 58.78125 0.109375 Z M 33.296875 -56.25 C 33.828125 -57.25 34.09375 -58.742188 34.09375 -60.734375 L 34.09375 -63.71875 C 34.09375 -64.25 34.015625 -65.050781 33.859375 -66.125 C 33.859375 -66.28125 33.835938 -66.472656 33.796875 -66.703125 C 33.765625 -66.929688 33.710938 -67.117188 33.640625 -67.265625 C 32.722656 -68.953125 31.914062 -70.101562 31.21875 -70.71875 L 25.9375 -73.578125 C 25.332031 -67.234375 25.03125 -61.648438 25.03125 -56.828125 C 25.03125 -55.367188 25.101562 -52.648438 25.25 -48.671875 C 26.320312 -49.128906 27.679688 -50.082031 29.328125 -51.53125 C 30.972656 -52.988281 32.296875 -54.5625 33.296875 -56.25 Z M 33.296875 -56.25 "/></g></g></g><g fill="#000000" fill-opacity="1"><g transform="translate(532.894912, 446.238897)"><g><path d="M 11.015625 -68.875 L 11.015625 -56.828125 C 11.015625 -50.929688 11.242188 -41.84375 11.703125 -29.5625 C 12.160156 -17.28125 12.625 -10.5625 13.09375 -9.40625 C 10.945312 -9.175781 9.257812 -8.390625 8.03125 -7.046875 C 6.8125 -5.710938 6.203125 -4.164062 6.203125 -2.40625 C 6.203125 0.0390625 7.039062 1.78125 8.71875 2.8125 C 10.40625 3.84375 13.046875 4.359375 16.640625 4.359375 C 17.328125 4.359375 19.085938 4.070312 21.921875 3.5 C 24.753906 2.925781 26.820312 2.375 28.125 1.84375 C 31.570312 0.457031 33.296875 -1.835938 33.296875 -5.046875 C 33.296875 -5.503906 33.066406 -6.539062 32.609375 -8.15625 C 33.523438 -9.375 33.984375 -10.785156 33.984375 -12.390625 C 33.984375 -21.890625 34.097656 -28.207031 34.328125 -31.34375 C 34.398438 -32.875 34.722656 -41.175781 35.296875 -56.25 C 35.867188 -71.320312 36.15625 -79.359375 36.15625 -80.359375 C 36.15625 -82.273438 35.445312 -83.9375 34.03125 -85.34375 C 32.613281 -86.757812 30.953125 -87.46875 29.046875 -87.46875 C 27.441406 -87.46875 25.988281 -86.9375 24.6875 -85.875 C 23.914062 -85.71875 22.921875 -85.640625 21.703125 -85.640625 C 21.003906 -85.640625 20.273438 -85.675781 19.515625 -85.75 C 18.753906 -85.832031 18.296875 -85.875 18.140625 -85.875 C 16.609375 -85.875 15.226562 -85.375 14 -84.375 C 11.632812 -84.070312 9.664062 -83.054688 8.09375 -81.328125 C 6.519531 -79.609375 5.734375 -77.753906 5.734375 -75.765625 C 5.734375 -74.160156 6.226562 -72.722656 7.21875 -71.453125 C 8.21875 -70.191406 9.484375 -69.332031 11.015625 -68.875 Z M 11.015625 -68.875 "/></g></g></g><g fill="#000000" fill-opacity="1"><g transform="translate(590.522913, 446.238897)"><g><path d="M 51.765625 -29.15625 C 53.679688 -29.15625 55.347656 -28.46875 56.765625 -27.09375 C 58.179688 -25.71875 58.890625 -24.070312 58.890625 -22.15625 C 58.890625 -20.238281 58.179688 -18.570312 56.765625 -17.15625 C 55.347656 -15.738281 53.679688 -15.03125 51.765625 -15.03125 L 50.625 -15.03125 L 50.625 -12.390625 L 51.203125 -11.015625 C 51.503906 -10.328125 51.65625 -9.523438 51.65625 -8.609375 C 51.65625 -6.691406 50.96875 -5.023438 49.59375 -3.609375 C 48.21875 -2.203125 46.535156 -1.5 44.546875 -1.5 C 42.171875 -1.5 40.234375 -2.566406 38.734375 -4.703125 C 37.242188 -6.847656 36.5 -9.375 36.5 -12.28125 L 36.5 -15.03125 L 23.765625 -15.03125 C 23.378906 -13.195312 22.914062 -11.265625 22.375 -9.234375 C 21.84375 -7.210938 21.578125 -6.160156 21.578125 -6.078125 C 21.117188 -4.015625 20.46875 -2.445312 19.625 -1.375 C 18.789062 -0.300781 17.492188 0.234375 15.734375 0.234375 C 14.734375 0.234375 13.890625 0.078125 13.203125 -0.234375 C 11.742188 0.765625 10.59375 1.265625 9.75 1.265625 C 8.757812 1.265625 8.015625 0.828125 7.515625 -0.046875 C 7.015625 -0.929688 6.5 -2.21875 5.96875 -3.90625 C 5.8125 -4.519531 5.734375 -5.242188 5.734375 -6.078125 C 5.734375 -12.203125 7.757812 -24.617188 11.8125 -43.328125 C 15.875 -62.046875 19.128906 -73.816406 21.578125 -78.640625 C 21.960938 -80.242188 22.75 -81.539062 23.9375 -82.53125 C 25.125 -83.53125 26.632812 -84.03125 28.46875 -84.03125 C 29.238281 -84.03125 30.082031 -83.914062 31 -83.6875 C 32.375 -86.0625 34.398438 -87.25 37.078125 -87.25 C 41.828125 -87.25 44.203125 -84.035156 44.203125 -77.609375 L 45.6875 -65.4375 C 46.6875 -57.320312 47.679688 -49.25 48.671875 -41.21875 L 50.171875 -29.15625 Z M 27.09375 -29.15625 L 36.046875 -29.15625 C 35.128906 -40.632812 34.285156 -48.441406 33.515625 -52.578125 L 32.140625 -51.65625 C 31.984375 -50.894531 30.300781 -43.394531 27.09375 -29.15625 Z M 27.09375 -29.15625 "/></g></g></g></svg>