<svg xmlns="http://www.w3.org/2000/svg" xmlns:xlink="http://www.w3.org/1999/xlink" width="300" zoomAndPan="magnify" viewBox="0 0 224.87999 112.499997" height="150" preserveAspectRatio="xMidYMid meet" version="1.0"><defs><g/><clipPath id="id1"><path d="M 136.121094 14.207031 L 181.671875 14.207031 L 181.671875 62.742188 L 136.121094 62.742188 Z M 136.121094 14.207031 " clip-rule="nonzero"/></clipPath></defs><g fill="#000000" fill-opacity="1"><g transform="translate(0.437786, 54.384907)"><g><path d="M 5.90625 -20.765625 C 5.539062 -21.066406 5.132812 -21.21875 4.6875 -21.21875 C 4.25 -21.21875 3.851562 -21.054688 3.5 -20.734375 C 3.15625 -20.421875 2.960938 -20.039062 2.921875 -19.59375 C 2.898438 -19.363281 2.863281 -19.191406 2.8125 -19.078125 C 2.207031 -16.921875 1.828125 -15.269531 1.671875 -14.125 C 1.523438 -12.988281 1.453125 -11.28125 1.453125 -9 L 1.453125 -3.46875 C 1.453125 -2.695312 1.613281 -2.085938 1.9375 -1.640625 C 2.269531 -1.203125 2.722656 -0.984375 3.296875 -0.984375 C 3.785156 -0.984375 4.203125 -1.15625 4.546875 -1.5 C 5.085938 -0.832031 5.675781 -0.378906 6.3125 -0.140625 C 6.945312 0.0859375 7.84375 0.203125 9 0.203125 C 9.757812 0.203125 10.398438 0.0351562 10.921875 -0.296875 C 11.441406 -0.640625 11.703125 -1.128906 11.703125 -1.765625 C 11.703125 -2.285156 11.515625 -2.707031 11.140625 -3.03125 C 10.773438 -3.363281 10.351562 -3.53125 9.875 -3.53125 C 9.601562 -3.53125 9.351562 -3.472656 9.125 -3.359375 C 8.5 -3.359375 7.957031 -3.40625 7.5 -3.5 C 7.5 -3.882812 7.492188 -4.335938 7.484375 -4.859375 C 7.472656 -5.378906 7.46875 -5.726562 7.46875 -5.90625 C 7.46875 -6.25 7.488281 -7.132812 7.53125 -8.5625 L 8.890625 -8.5625 C 9.367188 -8.5625 9.78125 -8.734375 10.125 -9.078125 C 10.476562 -9.429688 10.65625 -9.847656 10.65625 -10.328125 C 10.65625 -10.816406 10.476562 -11.238281 10.125 -11.59375 C 9.78125 -11.945312 9.367188 -12.125 8.890625 -12.125 L 7.734375 -12.125 C 7.890625 -14.65625 8.015625 -16.382812 8.109375 -17.3125 L 8.921875 -17.140625 C 9.460938 -17.003906 10.003906 -16.875 10.546875 -16.75 C 11.097656 -16.625 11.363281 -16.5625 11.34375 -16.5625 C 11.8125 -16.5625 12.222656 -16.722656 12.578125 -17.046875 C 12.929688 -17.378906 13.109375 -17.804688 13.109375 -18.328125 C 13.109375 -18.710938 13 -19.054688 12.78125 -19.359375 C 12.5625 -19.671875 12.269531 -19.894531 11.90625 -20.03125 C 11.6875 -20.113281 11.394531 -20.195312 11.03125 -20.28125 C 10.664062 -20.363281 10.175781 -20.46875 9.5625 -20.59375 C 8.957031 -20.71875 8.425781 -20.84375 7.96875 -20.96875 C 7.519531 -21.0625 7.21875 -21.109375 7.0625 -21.109375 C 6.738281 -21.109375 6.46875 -21.050781 6.25 -20.9375 C 6.039062 -20.820312 5.925781 -20.765625 5.90625 -20.765625 Z M 5.90625 -20.765625 "/></g></g></g><g fill="#000000" fill-opacity="1"><g transform="translate(18.964508, 54.384907)"><g><path d="M 11.234375 -18.5 C 11.234375 -19.40625 10.585938 -20.148438 9.296875 -20.734375 C 8.546875 -21.054688 7.8125 -21.21875 7.09375 -21.21875 C 6.101562 -21.21875 5.300781 -20.785156 4.6875 -19.921875 C 4.457031 -20.015625 4.238281 -20.0625 4.03125 -20.0625 C 3.332031 -20.0625 2.726562 -19.65625 2.21875 -18.84375 C 1.707031 -18.03125 1.453125 -17.238281 1.453125 -16.46875 C 1.453125 -16.082031 1.503906 -15.660156 1.609375 -15.203125 C 1.710938 -14.753906 1.828125 -14.367188 1.953125 -14.046875 C 2.078125 -13.734375 2.238281 -13.328125 2.4375 -12.828125 C 2.644531 -12.328125 2.785156 -11.96875 2.859375 -11.75 C 3.128906 -10.957031 3.375 -10.378906 3.59375 -10.015625 C 4.863281 -7.484375 5.679688 -5.695312 6.046875 -4.65625 C 6.265625 -4.15625 6.375 -3.625 6.375 -3.0625 C 6.375 -2.625 6.332031 -2.171875 6.25 -1.703125 C 5.925781 -2.015625 5.519531 -2.171875 5.03125 -2.171875 C 4.507812 -2.171875 4.082031 -1.988281 3.75 -1.625 C 3.425781 -1.257812 3.265625 -0.84375 3.265625 -0.375 C 3.265625 0.320312 3.59375 0.898438 4.25 1.359375 C 4.90625 1.828125 5.679688 2.0625 6.578125 2.0625 C 8.484375 2.0625 9.742188 1.613281 10.359375 0.71875 C 10.984375 -0.164062 11.296875 -1.679688 11.296875 -3.828125 C 11.296875 -6.210938 10.394531 -9.519531 8.59375 -13.75 C 8.289062 -14.445312 8.085938 -14.925781 7.984375 -15.1875 C 7.890625 -15.445312 7.796875 -15.785156 7.703125 -16.203125 C 7.617188 -16.617188 7.578125 -17.066406 7.578125 -17.546875 C 7.796875 -17.472656 7.953125 -17.394531 8.046875 -17.3125 C 8.585938 -16.925781 9.039062 -16.734375 9.40625 -16.734375 C 9.925781 -16.734375 10.359375 -16.90625 10.703125 -17.25 C 11.054688 -17.601562 11.234375 -18.019531 11.234375 -18.5 Z M 11.234375 -18.5 "/></g></g></g><g fill="#000000" fill-opacity="1"><g transform="translate(35.667663, 54.384907)"><g><path d="M 13.0625 -14.09375 C 13.0625 -12.507812 12.941406 -11.398438 12.703125 -10.765625 C 12.179688 -9.398438 11.503906 -8.46875 10.671875 -7.96875 C 9.847656 -7.476562 8.578125 -7.1875 6.859375 -7.09375 L 6.859375 -1.296875 C 6.859375 -0.878906 6.71875 -0.5 6.4375 -0.15625 C 6.15625 0.175781 5.816406 0.382812 5.421875 0.46875 C 4.972656 0.789062 4.554688 0.953125 4.171875 0.953125 C 3.335938 0.953125 2.675781 0.445312 2.1875 -0.5625 C 1.695312 -1.570312 1.453125 -2.675781 1.453125 -3.875 L 1.453125 -10.71875 C 1.453125 -12.488281 1.738281 -15.238281 2.3125 -18.96875 C 2.425781 -19.5625 2.5625 -20.015625 2.71875 -20.328125 L 2.84375 -20.53125 C 3.144531 -21.144531 3.675781 -21.453125 4.4375 -21.453125 C 4.71875 -21.453125 4.984375 -21.382812 5.234375 -21.25 L 5.421875 -21.140625 C 5.566406 -21.171875 5.679688 -21.1875 5.765625 -21.1875 C 6.242188 -21.25 6.867188 -21.195312 7.640625 -21.03125 C 8.410156 -20.863281 9.066406 -20.609375 9.609375 -20.265625 C 10.691406 -19.609375 11.523438 -18.722656 12.109375 -17.609375 C 12.703125 -16.503906 13.019531 -15.332031 13.0625 -14.09375 Z M 6.78125 -10.890625 C 7.375 -10.890625 7.863281 -10.976562 8.25 -11.15625 C 8.632812 -11.34375 8.914062 -11.609375 9.09375 -11.953125 C 9.269531 -12.304688 9.378906 -12.632812 9.421875 -12.9375 C 9.472656 -13.25 9.5 -13.609375 9.5 -14.015625 C 9.5 -14.765625 9.273438 -15.414062 8.828125 -15.96875 C 8.390625 -16.519531 7.617188 -16.796875 6.515625 -16.796875 C 6.515625 -14.242188 6.601562 -12.273438 6.78125 -10.890625 Z M 6.78125 -10.890625 "/></g></g></g><g fill="#000000" fill-opacity="1"><g transform="translate(54.136493, 54.384907)"><g><path d="M 13.0625 -7.359375 C 13.539062 -7.359375 13.957031 -7.179688 14.3125 -6.828125 C 14.675781 -6.484375 14.859375 -6.066406 14.859375 -5.578125 C 14.859375 -5.097656 14.675781 -4.679688 14.3125 -4.328125 C 13.957031 -3.972656 13.539062 -3.796875 13.0625 -3.796875 L 12.765625 -3.796875 L 12.765625 -3.125 L 12.90625 -2.78125 C 12.988281 -2.601562 13.03125 -2.398438 13.03125 -2.171875 C 13.03125 -1.691406 12.851562 -1.269531 12.5 -0.90625 C 12.15625 -0.550781 11.734375 -0.375 11.234375 -0.375 C 10.640625 -0.375 10.148438 -0.644531 9.765625 -1.1875 C 9.390625 -1.726562 9.203125 -2.363281 9.203125 -3.09375 L 9.203125 -3.796875 L 6 -3.796875 C 5.894531 -3.328125 5.773438 -2.835938 5.640625 -2.328125 C 5.503906 -1.816406 5.4375 -1.550781 5.4375 -1.53125 C 5.320312 -1.007812 5.15625 -0.613281 4.9375 -0.34375 C 4.726562 -0.0703125 4.40625 0.0625 3.96875 0.0625 C 3.71875 0.0625 3.503906 0.0195312 3.328125 -0.0625 C 2.960938 0.1875 2.675781 0.3125 2.46875 0.3125 C 2.207031 0.3125 2.015625 0.203125 1.890625 -0.015625 C 1.765625 -0.234375 1.632812 -0.554688 1.5 -0.984375 C 1.46875 -1.140625 1.453125 -1.320312 1.453125 -1.53125 C 1.453125 -3.070312 1.960938 -6.203125 2.984375 -10.921875 C 4.003906 -15.648438 4.820312 -18.617188 5.4375 -19.828125 C 5.539062 -20.234375 5.738281 -20.5625 6.03125 -20.8125 C 6.332031 -21.0625 6.71875 -21.1875 7.1875 -21.1875 C 7.375 -21.1875 7.582031 -21.160156 7.8125 -21.109375 C 8.164062 -21.703125 8.679688 -22 9.359375 -22 C 10.546875 -22 11.140625 -21.191406 11.140625 -19.578125 L 11.515625 -16.5 C 11.773438 -14.457031 12.03125 -12.421875 12.28125 -10.390625 L 12.65625 -7.359375 Z M 6.828125 -7.359375 L 9.09375 -7.359375 C 8.863281 -10.253906 8.648438 -12.222656 8.453125 -13.265625 L 8.109375 -13.03125 C 8.066406 -12.832031 7.640625 -10.941406 6.828125 -7.359375 Z M 6.828125 -7.359375 "/></g></g></g><g fill="#000000" fill-opacity="1"><g transform="translate(74.399955, 54.384907)"><g><path d="M 14.21875 -16.875 C 14.21875 -18.070312 13.644531 -19.125 12.5 -20.03125 C 11.363281 -20.9375 10.117188 -21.390625 8.765625 -21.390625 C 8.378906 -21.835938 7.800781 -22.0625 7.03125 -22.0625 C 6.070312 -22.0625 5.21875 -21.628906 4.46875 -20.765625 C 3.726562 -19.910156 3.144531 -18.789062 2.71875 -17.40625 C 2.289062 -16.03125 1.972656 -14.566406 1.765625 -13.015625 C 1.554688 -11.460938 1.453125 -9.882812 1.453125 -8.28125 C 1.453125 -5.945312 2.28125 -3.835938 3.9375 -1.953125 C 5.59375 -0.0664062 7.472656 0.875 9.578125 0.875 C 10.117188 0.875 10.546875 0.75 10.859375 0.5 C 11.171875 0.53125 11.398438 0.546875 11.546875 0.546875 C 12.222656 0.546875 12.785156 0.375 13.234375 0.03125 C 13.691406 -0.300781 13.921875 -0.773438 13.921875 -1.390625 C 13.921875 -1.890625 13.738281 -2.300781 13.375 -2.625 C 13.007812 -2.957031 12.601562 -3.125 12.15625 -3.125 C 12.082031 -3.125 11.960938 -3.109375 11.796875 -3.078125 C 11.628906 -3.054688 11.488281 -3.046875 11.375 -3.046875 C 10.53125 -3.046875 9.707031 -3.570312 8.90625 -4.625 C 8.101562 -5.675781 7.703125 -6.710938 7.703125 -7.734375 C 7.703125 -10.523438 7.765625 -12.488281 7.890625 -13.625 C 8.015625 -14.769531 8.304688 -15.851562 8.765625 -16.875 C 9.023438 -17.457031 9.269531 -17.75 9.5 -17.75 C 9.707031 -17.75 10.09375 -17.441406 10.65625 -16.828125 C 10.675781 -16.359375 10.859375 -15.945312 11.203125 -15.59375 C 11.546875 -15.25 11.957031 -15.078125 12.4375 -15.078125 C 12.925781 -15.078125 13.34375 -15.25 13.6875 -15.59375 C 14.039062 -15.945312 14.21875 -16.375 14.21875 -16.875 Z M 14.21875 -16.875 "/></g></g></g><g fill="#000000" fill-opacity="1"><g transform="translate(94.026614, 54.384907)"><g><path d="M 2.78125 -17.375 L 2.78125 -14.328125 C 2.78125 -12.847656 2.835938 -10.554688 2.953125 -7.453125 C 3.066406 -4.359375 3.179688 -2.664062 3.296875 -2.375 C 2.753906 -2.3125 2.328125 -2.113281 2.015625 -1.78125 C 1.710938 -1.445312 1.5625 -1.054688 1.5625 -0.609375 C 1.5625 0.00390625 1.773438 0.441406 2.203125 0.703125 C 2.628906 0.960938 3.296875 1.09375 4.203125 1.09375 C 4.367188 1.09375 4.804688 1.019531 5.515625 0.875 C 6.234375 0.738281 6.757812 0.601562 7.09375 0.46875 C 7.957031 0.113281 8.390625 -0.46875 8.390625 -1.28125 C 8.390625 -1.394531 8.332031 -1.65625 8.21875 -2.0625 C 8.445312 -2.363281 8.5625 -2.71875 8.5625 -3.125 C 8.5625 -5.519531 8.59375 -7.113281 8.65625 -7.90625 C 8.675781 -8.289062 8.757812 -10.382812 8.90625 -14.1875 C 9.050781 -17.988281 9.125 -20.015625 9.125 -20.265625 C 9.125 -20.742188 8.941406 -21.160156 8.578125 -21.515625 C 8.222656 -21.878906 7.804688 -22.0625 7.328125 -22.0625 C 6.921875 -22.0625 6.550781 -21.925781 6.21875 -21.65625 C 6.03125 -21.613281 5.78125 -21.59375 5.46875 -21.59375 C 5.300781 -21.59375 5.117188 -21.601562 4.921875 -21.625 C 4.722656 -21.644531 4.609375 -21.65625 4.578125 -21.65625 C 4.191406 -21.65625 3.84375 -21.53125 3.53125 -21.28125 C 2.9375 -21.207031 2.441406 -20.953125 2.046875 -20.515625 C 1.648438 -20.078125 1.453125 -19.609375 1.453125 -19.109375 C 1.453125 -18.703125 1.578125 -18.335938 1.828125 -18.015625 C 2.078125 -17.703125 2.394531 -17.488281 2.78125 -17.375 Z M 2.78125 -17.375 "/></g></g></g><g fill="#000000" fill-opacity="1"><g transform="translate(108.558844, 54.384907)"><g><path d="M 5.390625 -20.5625 C 5.015625 -20.882812 4.597656 -21.046875 4.140625 -21.046875 C 3.660156 -21.046875 3.253906 -20.882812 2.921875 -20.5625 C 2.285156 -19.914062 1.878906 -19.007812 1.703125 -17.84375 C 1.535156 -16.675781 1.453125 -14.394531 1.453125 -11 L 1.453125 -8.015625 C 1.453125 -5.523438 1.492188 -3.960938 1.578125 -3.328125 C 1.660156 -2.691406 1.925781 -2.082031 2.375 -1.5 C 3.050781 -0.519531 3.773438 0.269531 4.546875 0.875 C 4.859375 1.175781 5.4375 1.328125 6.28125 1.328125 C 7.800781 1.328125 9.050781 0.722656 10.03125 -0.484375 C 11.019531 -1.703125 11.625 -3.238281 11.84375 -5.09375 C 12.03125 -6.925781 12.125 -8.429688 12.125 -9.609375 C 12.125 -10.191406 12.132812 -11.015625 12.15625 -12.078125 C 12.175781 -13.148438 12.1875 -13.929688 12.1875 -14.421875 C 12.1875 -15.367188 12.160156 -16.171875 12.109375 -16.828125 C 12.066406 -17.492188 11.953125 -18.160156 11.765625 -18.828125 C 11.585938 -19.492188 11.347656 -20.03125 11.046875 -20.4375 C 10.742188 -20.84375 10.328125 -21.179688 9.796875 -21.453125 C 9.265625 -21.722656 8.625 -21.867188 7.875 -21.890625 C 6.96875 -21.890625 6.140625 -21.445312 5.390625 -20.5625 Z M 7.5 -2.984375 L 7.390625 -3.046875 C 7.304688 -3.078125 7.207031 -3.128906 7.09375 -3.203125 C 6.976562 -3.285156 6.859375 -3.378906 6.734375 -3.484375 C 6.609375 -3.585938 6.484375 -3.71875 6.359375 -3.875 C 6.234375 -4.03125 6.128906 -4.1875 6.046875 -4.34375 C 5.816406 -4.84375 5.703125 -6.132812 5.703125 -8.21875 L 5.703125 -9.296875 C 5.703125 -11.765625 5.851562 -13.738281 6.15625 -15.21875 C 6.46875 -16.707031 7.109375 -17.644531 8.078125 -18.03125 C 8.460938 -16.738281 8.65625 -13.757812 8.65625 -9.09375 C 8.632812 -8.1875 8.519531 -7.09375 8.3125 -5.8125 C 8.113281 -4.539062 7.84375 -3.597656 7.5 -2.984375 Z M 7.5 -2.984375 "/></g></g></g><g fill="#000000" fill-opacity="1"><g transform="translate(0.437786, 90.972294)"><g><path d="M 11.234375 -18.5 C 11.234375 -19.40625 10.585938 -20.148438 9.296875 -20.734375 C 8.546875 -21.054688 7.8125 -21.21875 7.09375 -21.21875 C 6.101562 -21.21875 5.300781 -20.785156 4.6875 -19.921875 C 4.457031 -20.015625 4.238281 -20.0625 4.03125 -20.0625 C 3.332031 -20.0625 2.726562 -19.65625 2.21875 -18.84375 C 1.707031 -18.03125 1.453125 -17.238281 1.453125 -16.46875 C 1.453125 -16.082031 1.503906 -15.660156 1.609375 -15.203125 C 1.710938 -14.753906 1.828125 -14.367188 1.953125 -14.046875 C 2.078125 -13.734375 2.238281 -13.328125 2.4375 -12.828125 C 2.644531 -12.328125 2.785156 -11.96875 2.859375 -11.75 C 3.128906 -10.957031 3.375 -10.378906 3.59375 -10.015625 C 4.863281 -7.484375 5.679688 -5.695312 6.046875 -4.65625 C 6.265625 -4.15625 6.375 -3.625 6.375 -3.0625 C 6.375 -2.625 6.332031 -2.171875 6.25 -1.703125 C 5.925781 -2.015625 5.519531 -2.171875 5.03125 -2.171875 C 4.507812 -2.171875 4.082031 -1.988281 3.75 -1.625 C 3.425781 -1.257812 3.265625 -0.84375 3.265625 -0.375 C 3.265625 0.320312 3.59375 0.898438 4.25 1.359375 C 4.90625 1.828125 5.679688 2.0625 6.578125 2.0625 C 8.484375 2.0625 9.742188 1.613281 10.359375 0.71875 C 10.984375 -0.164062 11.296875 -1.679688 11.296875 -3.828125 C 11.296875 -6.210938 10.394531 -9.519531 8.59375 -13.75 C 8.289062 -14.445312 8.085938 -14.925781 7.984375 -15.1875 C 7.890625 -15.445312 7.796875 -15.785156 7.703125 -16.203125 C 7.617188 -16.617188 7.578125 -17.066406 7.578125 -17.546875 C 7.796875 -17.472656 7.953125 -17.394531 8.046875 -17.3125 C 8.585938 -16.925781 9.039062 -16.734375 9.40625 -16.734375 C 9.925781 -16.734375 10.359375 -16.90625 10.703125 -17.25 C 11.054688 -17.601562 11.234375 -18.019531 11.234375 -18.5 Z M 11.234375 -18.5 "/></g></g></g><g fill="#000000" fill-opacity="1"><g transform="translate(17.14094, 90.972294)"><g><path d="M 7.53125 0.8125 C 7.875 0.945312 8.28125 1.015625 8.75 1.015625 C 9.550781 1.015625 10.25 0.722656 10.84375 0.140625 C 11.445312 -0.429688 11.910156 -1.226562 12.234375 -2.25 C 12.566406 -3.28125 12.804688 -4.382812 12.953125 -5.5625 C 13.097656 -6.738281 13.171875 -8.007812 13.171875 -9.375 C 13.171875 -11.09375 13.191406 -13.253906 13.234375 -15.859375 C 13.273438 -18.472656 13.296875 -20.039062 13.296875 -20.5625 C 13.296875 -21.0625 13.125 -21.484375 12.78125 -21.828125 C 12.445312 -22.179688 12.023438 -22.359375 11.515625 -22.359375 C 11.015625 -22.359375 10.59375 -22.179688 10.25 -21.828125 C 9.90625 -21.484375 9.734375 -21.0625 9.734375 -20.5625 C 9.734375 -19.363281 9.710938 -18.332031 9.671875 -17.46875 C 9.628906 -16.613281 9.609375 -15.859375 9.609375 -15.203125 L 9.609375 -7.90625 C 9.609375 -6.957031 9.535156 -6.164062 9.390625 -5.53125 C 9.242188 -4.894531 8.960938 -3.988281 8.546875 -2.8125 C 7.671875 -4.15625 7.234375 -6.066406 7.234375 -8.546875 C 7.234375 -11.492188 7.242188 -13.972656 7.265625 -15.984375 C 7.285156 -17.992188 7.296875 -19.285156 7.296875 -19.859375 C 7.296875 -20.335938 7.140625 -20.734375 6.828125 -21.046875 C 6.734375 -21.453125 6.515625 -21.78125 6.171875 -22.03125 C 5.835938 -22.28125 5.488281 -22.40625 5.125 -22.40625 C 4.394531 -22.40625 3.769531 -21.988281 3.25 -21.15625 C 2.738281 -20.332031 2.359375 -19.207031 2.109375 -17.78125 C 1.859375 -16.351562 1.6875 -14.929688 1.59375 -13.515625 C 1.5 -12.109375 1.453125 -10.585938 1.453125 -8.953125 L 1.453125 -6.921875 C 1.453125 -5.722656 1.535156 -4.863281 1.703125 -4.34375 C 2.078125 -2.988281 2.757812 -1.742188 3.75 -0.609375 C 4.738281 0.515625 5.71875 1.078125 6.6875 1.078125 C 6.957031 1.078125 7.238281 0.988281 7.53125 0.8125 Z M 7.53125 0.8125 "/></g></g></g><g fill="#000000" fill-opacity="1"><g transform="translate(35.841333, 90.972294)"><g><path d="M 14.828125 0.03125 C 14.828125 0.53125 14.65625 0.945312 14.3125 1.28125 C 13.976562 1.625 13.5625 1.796875 13.0625 1.796875 C 12.726562 1.796875 12.457031 1.742188 12.25 1.640625 C 12.050781 1.535156 11.894531 1.410156 11.78125 1.265625 C 11.664062 1.117188 11.4375 0.789062 11.09375 0.28125 C 10.757812 -0.21875 10.441406 -0.675781 10.140625 -1.09375 C 9.785156 -1.5625 9.265625 -2.398438 8.578125 -3.609375 C 7.898438 -4.816406 7.425781 -5.738281 7.15625 -6.375 L 6.796875 -6.203125 C 6.796875 -5.890625 6.835938 -5.191406 6.921875 -4.109375 C 6.992188 -2.410156 7.03125 -1.472656 7.03125 -1.296875 C 7.03125 -0.703125 6.96875 -0.316406 6.84375 -0.140625 C 6.71875 0.0234375 6.453125 0.109375 6.046875 0.109375 C 5.972656 0.109375 5.835938 0.09375 5.640625 0.0625 C 5.429688 0.113281 5.238281 0.140625 5.0625 0.140625 C 4.40625 0.140625 3.785156 -0.300781 3.203125 -1.1875 C 2.628906 -2.070312 2.191406 -3.09375 1.890625 -4.25 C 1.597656 -5.414062 1.453125 -6.488281 1.453125 -7.46875 C 1.453125 -10.25 1.5 -12.429688 1.59375 -14.015625 C 1.59375 -14.671875 1.703125 -15.898438 1.921875 -17.703125 C 2.148438 -19.503906 2.335938 -20.59375 2.484375 -20.96875 C 2.929688 -21.925781 3.539062 -22.40625 4.3125 -22.40625 C 4.519531 -22.40625 4.75 -22.359375 5 -22.265625 C 5.257812 -22.171875 5.457031 -22.023438 5.59375 -21.828125 C 6.9375 -21.828125 7.867188 -21.75 8.390625 -21.59375 C 8.910156 -21.445312 9.492188 -21.109375 10.140625 -20.578125 C 11.484375 -19.460938 12.15625 -17.957031 12.15625 -16.0625 C 12.15625 -14.882812 12.03125 -13.984375 11.78125 -13.359375 C 11.53125 -12.734375 10.847656 -11.484375 9.734375 -9.609375 C 11.140625 -6.273438 12.375 -3.957031 13.4375 -2.65625 C 14.363281 -1.34375 14.828125 -0.445312 14.828125 0.03125 Z M 8.390625 -14.1875 C 8.523438 -14.4375 8.59375 -14.8125 8.59375 -15.3125 L 8.59375 -16.0625 C 8.59375 -16.195312 8.578125 -16.398438 8.546875 -16.671875 C 8.546875 -16.710938 8.539062 -16.757812 8.53125 -16.8125 C 8.519531 -16.875 8.503906 -16.925781 8.484375 -16.96875 C 8.253906 -17.394531 8.050781 -17.679688 7.875 -17.828125 L 6.546875 -18.5625 C 6.390625 -16.957031 6.3125 -15.546875 6.3125 -14.328125 C 6.3125 -13.960938 6.332031 -13.28125 6.375 -12.28125 C 6.644531 -12.394531 6.984375 -12.632812 7.390625 -13 C 7.804688 -13.363281 8.140625 -13.757812 8.390625 -14.1875 Z M 8.390625 -14.1875 "/></g></g></g><g fill="#000000" fill-opacity="1"><g transform="translate(56.075842, 90.972294)"><g><path d="M 14.828125 0.03125 C 14.828125 0.53125 14.65625 0.945312 14.3125 1.28125 C 13.976562 1.625 13.5625 1.796875 13.0625 1.796875 C 12.726562 1.796875 12.457031 1.742188 12.25 1.640625 C 12.050781 1.535156 11.894531 1.410156 11.78125 1.265625 C 11.664062 1.117188 11.4375 0.789062 11.09375 0.28125 C 10.757812 -0.21875 10.441406 -0.675781 10.140625 -1.09375 C 9.785156 -1.5625 9.265625 -2.398438 8.578125 -3.609375 C 7.898438 -4.816406 7.425781 -5.738281 7.15625 -6.375 L 6.796875 -6.203125 C 6.796875 -5.890625 6.835938 -5.191406 6.921875 -4.109375 C 6.992188 -2.410156 7.03125 -1.472656 7.03125 -1.296875 C 7.03125 -0.703125 6.96875 -0.316406 6.84375 -0.140625 C 6.71875 0.0234375 6.453125 0.109375 6.046875 0.109375 C 5.972656 0.109375 5.835938 0.09375 5.640625 0.0625 C 5.429688 0.113281 5.238281 0.140625 5.0625 0.140625 C 4.40625 0.140625 3.785156 -0.300781 3.203125 -1.1875 C 2.628906 -2.070312 2.191406 -3.09375 1.890625 -4.25 C 1.597656 -5.414062 1.453125 -6.488281 1.453125 -7.46875 C 1.453125 -10.25 1.5 -12.429688 1.59375 -14.015625 C 1.59375 -14.671875 1.703125 -15.898438 1.921875 -17.703125 C 2.148438 -19.503906 2.335938 -20.59375 2.484375 -20.96875 C 2.929688 -21.925781 3.539062 -22.40625 4.3125 -22.40625 C 4.519531 -22.40625 4.75 -22.359375 5 -22.265625 C 5.257812 -22.171875 5.457031 -22.023438 5.59375 -21.828125 C 6.9375 -21.828125 7.867188 -21.75 8.390625 -21.59375 C 8.910156 -21.445312 9.492188 -21.109375 10.140625 -20.578125 C 11.484375 -19.460938 12.15625 -17.957031 12.15625 -16.0625 C 12.15625 -14.882812 12.03125 -13.984375 11.78125 -13.359375 C 11.53125 -12.734375 10.847656 -11.484375 9.734375 -9.609375 C 11.140625 -6.273438 12.375 -3.957031 13.4375 -2.65625 C 14.363281 -1.34375 14.828125 -0.445312 14.828125 0.03125 Z M 8.390625 -14.1875 C 8.523438 -14.4375 8.59375 -14.8125 8.59375 -15.3125 L 8.59375 -16.0625 C 8.59375 -16.195312 8.578125 -16.398438 8.546875 -16.671875 C 8.546875 -16.710938 8.539062 -16.757812 8.53125 -16.8125 C 8.519531 -16.875 8.503906 -16.925781 8.484375 -16.96875 C 8.253906 -17.394531 8.050781 -17.679688 7.875 -17.828125 L 6.546875 -18.5625 C 6.390625 -16.957031 6.3125 -15.546875 6.3125 -14.328125 C 6.3125 -13.960938 6.332031 -13.28125 6.375 -12.28125 C 6.644531 -12.394531 6.984375 -12.632812 7.390625 -13 C 7.804688 -13.363281 8.140625 -13.757812 8.390625 -14.1875 Z M 8.390625 -14.1875 "/></g></g></g><g fill="#000000" fill-opacity="1"><g transform="translate(76.310353, 90.972294)"><g><path d="M 5.90625 -20.765625 C 5.539062 -21.066406 5.132812 -21.21875 4.6875 -21.21875 C 4.25 -21.21875 3.851562 -21.054688 3.5 -20.734375 C 3.15625 -20.421875 2.960938 -20.039062 2.921875 -19.59375 C 2.898438 -19.363281 2.863281 -19.191406 2.8125 -19.078125 C 2.207031 -16.921875 1.828125 -15.269531 1.671875 -14.125 C 1.523438 -12.988281 1.453125 -11.28125 1.453125 -9 L 1.453125 -3.46875 C 1.453125 -2.695312 1.613281 -2.085938 1.9375 -1.640625 C 2.269531 -1.203125 2.722656 -0.984375 3.296875 -0.984375 C 3.785156 -0.984375 4.203125 -1.15625 4.546875 -1.5 C 5.085938 -0.832031 5.675781 -0.378906 6.3125 -0.140625 C 6.945312 0.0859375 7.84375 0.203125 9 0.203125 C 9.757812 0.203125 10.398438 0.0351562 10.921875 -0.296875 C 11.441406 -0.640625 11.703125 -1.128906 11.703125 -1.765625 C 11.703125 -2.285156 11.515625 -2.707031 11.140625 -3.03125 C 10.773438 -3.363281 10.351562 -3.53125 9.875 -3.53125 C 9.601562 -3.53125 9.351562 -3.472656 9.125 -3.359375 C 8.5 -3.359375 7.957031 -3.40625 7.5 -3.5 C 7.5 -3.882812 7.492188 -4.335938 7.484375 -4.859375 C 7.472656 -5.378906 7.46875 -5.726562 7.46875 -5.90625 C 7.46875 -6.25 7.488281 -7.132812 7.53125 -8.5625 L 8.890625 -8.5625 C 9.367188 -8.5625 9.78125 -8.734375 10.125 -9.078125 C 10.476562 -9.429688 10.65625 -9.847656 10.65625 -10.328125 C 10.65625 -10.816406 10.476562 -11.238281 10.125 -11.59375 C 9.78125 -11.945312 9.367188 -12.125 8.890625 -12.125 L 7.734375 -12.125 C 7.890625 -14.65625 8.015625 -16.382812 8.109375 -17.3125 L 8.921875 -17.140625 C 9.460938 -17.003906 10.003906 -16.875 10.546875 -16.75 C 11.097656 -16.625 11.363281 -16.5625 11.34375 -16.5625 C 11.8125 -16.5625 12.222656 -16.722656 12.578125 -17.046875 C 12.929688 -17.378906 13.109375 -17.804688 13.109375 -18.328125 C 13.109375 -18.710938 13 -19.054688 12.78125 -19.359375 C 12.5625 -19.671875 12.269531 -19.894531 11.90625 -20.03125 C 11.6875 -20.113281 11.394531 -20.195312 11.03125 -20.28125 C 10.664062 -20.363281 10.175781 -20.46875 9.5625 -20.59375 C 8.957031 -20.71875 8.425781 -20.84375 7.96875 -20.96875 C 7.519531 -21.0625 7.21875 -21.109375 7.0625 -21.109375 C 6.738281 -21.109375 6.46875 -21.050781 6.25 -20.9375 C 6.039062 -20.820312 5.925781 -20.765625 5.90625 -20.765625 Z M 5.90625 -20.765625 "/></g></g></g><g fill="#000000" fill-opacity="1"><g transform="translate(94.837077, 90.972294)"><g><path d="M 13.0625 -7.359375 C 13.539062 -7.359375 13.957031 -7.179688 14.3125 -6.828125 C 14.675781 -6.484375 14.859375 -6.066406 14.859375 -5.578125 C 14.859375 -5.097656 14.675781 -4.679688 14.3125 -4.328125 C 13.957031 -3.972656 13.539062 -3.796875 13.0625 -3.796875 L 12.765625 -3.796875 L 12.765625 -3.125 L 12.90625 -2.78125 C 12.988281 -2.601562 13.03125 -2.398438 13.03125 -2.171875 C 13.03125 -1.691406 12.851562 -1.269531 12.5 -0.90625 C 12.15625 -0.550781 11.734375 -0.375 11.234375 -0.375 C 10.640625 -0.375 10.148438 -0.644531 9.765625 -1.1875 C 9.390625 -1.726562 9.203125 -2.363281 9.203125 -3.09375 L 9.203125 -3.796875 L 6 -3.796875 C 5.894531 -3.328125 5.773438 -2.835938 5.640625 -2.328125 C 5.503906 -1.816406 5.4375 -1.550781 5.4375 -1.53125 C 5.320312 -1.007812 5.15625 -0.613281 4.9375 -0.34375 C 4.726562 -0.0703125 4.40625 0.0625 3.96875 0.0625 C 3.71875 0.0625 3.503906 0.0195312 3.328125 -0.0625 C 2.960938 0.1875 2.675781 0.3125 2.46875 0.3125 C 2.207031 0.3125 2.015625 0.203125 1.890625 -0.015625 C 1.765625 -0.234375 1.632812 -0.554688 1.5 -0.984375 C 1.46875 -1.140625 1.453125 -1.320312 1.453125 -1.53125 C 1.453125 -3.070312 1.960938 -6.203125 2.984375 -10.921875 C 4.003906 -15.648438 4.820312 -18.617188 5.4375 -19.828125 C 5.539062 -20.234375 5.738281 -20.5625 6.03125 -20.8125 C 6.332031 -21.0625 6.71875 -21.1875 7.1875 -21.1875 C 7.375 -21.1875 7.582031 -21.160156 7.8125 -21.109375 C 8.164062 -21.703125 8.679688 -22 9.359375 -22 C 10.546875 -22 11.140625 -21.191406 11.140625 -19.578125 L 11.515625 -16.5 C 11.773438 -14.457031 12.03125 -12.421875 12.28125 -10.390625 L 12.65625 -7.359375 Z M 6.828125 -7.359375 L 9.09375 -7.359375 C 8.863281 -10.253906 8.648438 -12.222656 8.453125 -13.265625 L 8.109375 -13.03125 C 8.066406 -12.832031 7.640625 -10.941406 6.828125 -7.359375 Z M 6.828125 -7.359375 "/></g></g></g><g fill="#000000" fill-opacity="1"><g transform="translate(115.100533, 90.972294)"><g><path d="M 4.828125 -21.953125 L 4.71875 -21.953125 C 4.425781 -22.234375 4.078125 -22.40625 3.671875 -22.46875 C 3.191406 -22.507812 2.757812 -22.375 2.375 -22.0625 C 1.988281 -21.75 1.765625 -21.363281 1.703125 -20.90625 C 1.535156 -19.550781 1.453125 -18.09375 1.453125 -16.53125 L 1.453125 -2.65625 C 1.453125 -2.175781 1.628906 -1.757812 1.984375 -1.40625 C 2.335938 -1.050781 2.757812 -0.875 3.25 -0.875 C 3.34375 -0.875 3.484375 -0.890625 3.671875 -0.921875 C 4.046875 -0.242188 4.691406 0.234375 5.609375 0.515625 C 6.523438 0.804688 7.8125 0.953125 9.46875 0.953125 C 9.945312 0.953125 10.363281 0.773438 10.71875 0.421875 C 11.082031 0.0664062 11.265625 -0.347656 11.265625 -0.828125 C 11.265625 -1.316406 11.082031 -1.734375 10.71875 -2.078125 C 10.363281 -2.429688 9.945312 -2.609375 9.46875 -2.609375 C 7.726562 -2.609375 6.8125 -2.703125 6.71875 -2.890625 C 6.71875 -4.046875 6.722656 -5.207031 6.734375 -6.375 C 6.742188 -7.550781 6.75 -8.347656 6.75 -8.765625 C 6.75 -9.960938 6.722656 -11.351562 6.671875 -12.9375 C 6.617188 -14.519531 6.59375 -15.695312 6.59375 -16.46875 L 6.59375 -20.15625 C 6.59375 -20.632812 6.421875 -21.050781 6.078125 -21.40625 C 5.734375 -21.769531 5.316406 -21.953125 4.828125 -21.953125 Z M 4.828125 -21.953125 "/></g></g></g><g fill="#000000" fill-opacity="1"><g transform="translate(131.774737, 90.972294)"><g><path d="M 2.78125 -17.375 L 2.78125 -14.328125 C 2.78125 -12.847656 2.835938 -10.554688 2.953125 -7.453125 C 3.066406 -4.359375 3.179688 -2.664062 3.296875 -2.375 C 2.753906 -2.3125 2.328125 -2.113281 2.015625 -1.78125 C 1.710938 -1.445312 1.5625 -1.054688 1.5625 -0.609375 C 1.5625 0.00390625 1.773438 0.441406 2.203125 0.703125 C 2.628906 0.960938 3.296875 1.09375 4.203125 1.09375 C 4.367188 1.09375 4.804688 1.019531 5.515625 0.875 C 6.234375 0.738281 6.757812 0.601562 7.09375 0.46875 C 7.957031 0.113281 8.390625 -0.46875 8.390625 -1.28125 C 8.390625 -1.394531 8.332031 -1.65625 8.21875 -2.0625 C 8.445312 -2.363281 8.5625 -2.71875 8.5625 -3.125 C 8.5625 -5.519531 8.59375 -7.113281 8.65625 -7.90625 C 8.675781 -8.289062 8.757812 -10.382812 8.90625 -14.1875 C 9.050781 -17.988281 9.125 -20.015625 9.125 -20.265625 C 9.125 -20.742188 8.941406 -21.160156 8.578125 -21.515625 C 8.222656 -21.878906 7.804688 -22.0625 7.328125 -22.0625 C 6.921875 -22.0625 6.550781 -21.925781 6.21875 -21.65625 C 6.03125 -21.613281 5.78125 -21.59375 5.46875 -21.59375 C 5.300781 -21.59375 5.117188 -21.601562 4.921875 -21.625 C 4.722656 -21.644531 4.609375 -21.65625 4.578125 -21.65625 C 4.191406 -21.65625 3.84375 -21.53125 3.53125 -21.28125 C 2.9375 -21.207031 2.441406 -20.953125 2.046875 -20.515625 C 1.648438 -20.078125 1.453125 -19.609375 1.453125 -19.109375 C 1.453125 -18.703125 1.578125 -18.335938 1.828125 -18.015625 C 2.078125 -17.703125 2.394531 -17.488281 2.78125 -17.375 Z M 2.78125 -17.375 "/></g></g></g><g fill="#000000" fill-opacity="1"><g transform="translate(146.306973, 90.972294)"><g><path d="M 11.234375 -18.5 C 11.234375 -19.40625 10.585938 -20.148438 9.296875 -20.734375 C 8.546875 -21.054688 7.8125 -21.21875 7.09375 -21.21875 C 6.101562 -21.21875 5.300781 -20.785156 4.6875 -19.921875 C 4.457031 -20.015625 4.238281 -20.0625 4.03125 -20.0625 C 3.332031 -20.0625 2.726562 -19.65625 2.21875 -18.84375 C 1.707031 -18.03125 1.453125 -17.238281 1.453125 -16.46875 C 1.453125 -16.082031 1.503906 -15.660156 1.609375 -15.203125 C 1.710938 -14.753906 1.828125 -14.367188 1.953125 -14.046875 C 2.078125 -13.734375 2.238281 -13.328125 2.4375 -12.828125 C 2.644531 -12.328125 2.785156 -11.96875 2.859375 -11.75 C 3.128906 -10.957031 3.375 -10.378906 3.59375 -10.015625 C 4.863281 -7.484375 5.679688 -5.695312 6.046875 -4.65625 C 6.265625 -4.15625 6.375 -3.625 6.375 -3.0625 C 6.375 -2.625 6.332031 -2.171875 6.25 -1.703125 C 5.925781 -2.015625 5.519531 -2.171875 5.03125 -2.171875 C 4.507812 -2.171875 4.082031 -1.988281 3.75 -1.625 C 3.425781 -1.257812 3.265625 -0.84375 3.265625 -0.375 C 3.265625 0.320312 3.59375 0.898438 4.25 1.359375 C 4.90625 1.828125 5.679688 2.0625 6.578125 2.0625 C 8.484375 2.0625 9.742188 1.613281 10.359375 0.71875 C 10.984375 -0.164062 11.296875 -1.679688 11.296875 -3.828125 C 11.296875 -6.210938 10.394531 -9.519531 8.59375 -13.75 C 8.289062 -14.445312 8.085938 -14.925781 7.984375 -15.1875 C 7.890625 -15.445312 7.796875 -15.785156 7.703125 -16.203125 C 7.617188 -16.617188 7.578125 -17.066406 7.578125 -17.546875 C 7.796875 -17.472656 7.953125 -17.394531 8.046875 -17.3125 C 8.585938 -16.925781 9.039062 -16.734375 9.40625 -16.734375 C 9.925781 -16.734375 10.359375 -16.90625 10.703125 -17.25 C 11.054688 -17.601562 11.234375 -18.019531 11.234375 -18.5 Z M 11.234375 -18.5 "/></g></g></g><g fill="#000000" fill-opacity="1"><g transform="translate(163.01013, 90.972294)"><g><path d="M 3.265625 -16.96875 C 3.535156 -16.96875 3.796875 -17.035156 4.046875 -17.171875 C 4.585938 -17.398438 4.859375 -17.457031 4.859375 -17.34375 C 4.835938 -17.09375 4.828125 -16.707031 4.828125 -16.1875 C 4.828125 -14.945312 4.890625 -13.804688 5.015625 -12.765625 C 5.359375 -9.234375 5.554688 -5.519531 5.609375 -1.625 C 5.609375 -1.15625 5.765625 -0.75 6.078125 -0.40625 C 6.390625 -0.0703125 6.765625 0.117188 7.203125 0.171875 C 7.335938 0.484375 7.5625 0.742188 7.875 0.953125 C 8.1875 1.171875 8.515625 1.28125 8.859375 1.28125 C 9.335938 1.28125 9.75 1.097656 10.09375 0.734375 C 10.445312 0.378906 10.625 -0.0351562 10.625 -0.515625 C 10.625 -0.648438 10.582031 -2.140625 10.5 -4.984375 C 10.425781 -7.835938 10.390625 -10.5 10.390625 -12.96875 C 10.390625 -14.707031 10.488281 -16.253906 10.6875 -17.609375 L 11.921875 -17.484375 C 11.921875 -17.460938 12.066406 -17.53125 12.359375 -17.6875 C 12.648438 -17.84375 12.941406 -18.066406 13.234375 -18.359375 C 13.535156 -18.648438 13.6875 -18.9375 13.6875 -19.21875 C 13.6875 -20.050781 13.351562 -20.582031 12.6875 -20.8125 C 12.03125 -21.050781 10.925781 -21.171875 9.375 -21.171875 L 7.765625 -21.171875 C 6.859375 -21.171875 6.066406 -21.140625 5.390625 -21.078125 C 4.710938 -21.015625 4.054688 -20.898438 3.421875 -20.734375 C 2.785156 -20.578125 2.296875 -20.332031 1.953125 -20 C 1.617188 -19.675781 1.453125 -19.265625 1.453125 -18.765625 C 1.453125 -18.242188 1.632812 -17.8125 2 -17.46875 C 2.363281 -17.132812 2.785156 -16.96875 3.265625 -16.96875 Z M 3.265625 -16.96875 "/></g></g></g><g fill="#000000" fill-opacity="1"><g transform="translate(182.115766, 90.972294)"><g><path d="M 13.0625 -7.359375 C 13.539062 -7.359375 13.957031 -7.179688 14.3125 -6.828125 C 14.675781 -6.484375 14.859375 -6.066406 14.859375 -5.578125 C 14.859375 -5.097656 14.675781 -4.679688 14.3125 -4.328125 C 13.957031 -3.972656 13.539062 -3.796875 13.0625 -3.796875 L 12.765625 -3.796875 L 12.765625 -3.125 L 12.90625 -2.78125 C 12.988281 -2.601562 13.03125 -2.398438 13.03125 -2.171875 C 13.03125 -1.691406 12.851562 -1.269531 12.5 -0.90625 C 12.15625 -0.550781 11.734375 -0.375 11.234375 -0.375 C 10.640625 -0.375 10.148438 -0.644531 9.765625 -1.1875 C 9.390625 -1.726562 9.203125 -2.363281 9.203125 -3.09375 L 9.203125 -3.796875 L 6 -3.796875 C 5.894531 -3.328125 5.773438 -2.835938 5.640625 -2.328125 C 5.503906 -1.816406 5.4375 -1.550781 5.4375 -1.53125 C 5.320312 -1.007812 5.15625 -0.613281 4.9375 -0.34375 C 4.726562 -0.0703125 4.40625 0.0625 3.96875 0.0625 C 3.71875 0.0625 3.503906 0.0195312 3.328125 -0.0625 C 2.960938 0.1875 2.675781 0.3125 2.46875 0.3125 C 2.207031 0.3125 2.015625 0.203125 1.890625 -0.015625 C 1.765625 -0.234375 1.632812 -0.554688 1.5 -0.984375 C 1.46875 -1.140625 1.453125 -1.320312 1.453125 -1.53125 C 1.453125 -3.070312 1.960938 -6.203125 2.984375 -10.921875 C 4.003906 -15.648438 4.820312 -18.617188 5.4375 -19.828125 C 5.539062 -20.234375 5.738281 -20.5625 6.03125 -20.8125 C 6.332031 -21.0625 6.71875 -21.1875 7.1875 -21.1875 C 7.375 -21.1875 7.582031 -21.160156 7.8125 -21.109375 C 8.164062 -21.703125 8.679688 -22 9.359375 -22 C 10.546875 -22 11.140625 -21.191406 11.140625 -19.578125 L 11.515625 -16.5 C 11.773438 -14.457031 12.03125 -12.421875 12.28125 -10.390625 L 12.65625 -7.359375 Z M 6.828125 -7.359375 L 9.09375 -7.359375 C 8.863281 -10.253906 8.648438 -12.222656 8.453125 -13.265625 L 8.109375 -13.03125 C 8.066406 -12.832031 7.640625 -10.941406 6.828125 -7.359375 Z M 6.828125 -7.359375 "/></g></g></g><g clip-path="url(#id1)"><path fill="#000000" d="M 157.789062 14.199219 C 152.492188 14.199219 148.253906 18.429688 148.253906 23.714844 L 148.253906 27.945312 C 145.8125 27.417969 144.417969 26.996094 144.3125 26.890625 C 143.78125 26.679688 143.164062 26.988281 142.953125 27.515625 C 142.742188 28.046875 143.054688 28.695312 143.582031 28.90625 C 144.003906 28.90625 149.941406 31.019531 158.949219 31.019531 C 167.957031 31.019531 173.90625 28.914062 174.117188 28.804688 C 174.753906 28.699219 174.957031 28.046875 174.746094 27.515625 C 174.535156 26.988281 173.886719 26.679688 173.355469 26.890625 C 173.355469 26.890625 171.886719 27.417969 169.449219 27.945312 L 169.449219 23.714844 C 169.449219 18.429688 165.210938 14.199219 159.910156 14.199219 Z M 149.3125 31.019531 C 148.675781 31.019531 148.253906 31.441406 148.253906 32.078125 L 148.253906 33.035156 C 147.832031 33.5625 147.191406 34.628906 147.191406 36.109375 C 147.191406 38.75 148.570312 40.429688 149.3125 41.066406 C 149.523438 43.917969 151.007812 46.140625 152.492188 47.410156 L 152.492188 50.910156 C 151.75 52.605469 149.101562 53.644531 146.132812 54.8125 C 142.636719 56.1875 138.589844 57.773438 136.363281 61.15625 C 136.152344 61.472656 136.152344 61.894531 136.363281 62.210938 C 136.574219 62.53125 136.902344 62.742188 137.324219 62.742188 L 152.589844 62.742188 C 153.011719 62.742188 153.34375 62.542969 153.453125 62.015625 C 153.558594 61.695312 153.53125 61.273438 153.320312 60.957031 C 151.835938 58.84375 151.3125 55.976562 151.101562 54.8125 C 152.238281 54.207031 153.222656 53.5 153.882812 52.5625 C 154.207031 52.746094 154.644531 52.988281 155.273438 53.257812 C 155.714844 53.449219 156.21875 53.625 156.730469 53.785156 L 158.320312 56.398438 C 158.320312 56.398438 155.769531 59.570312 155.769531 62.742188 L 162.230469 62.742188 C 162.230469 59.460938 159.578125 56.398438 159.578125 56.398438 L 161.167969 53.785156 C 161.664062 53.625 162.132812 53.445312 162.558594 53.257812 C 163.066406 53.039062 163.492188 52.804688 163.816406 52.628906 C 164.472656 53.636719 165.507812 54.371094 166.699219 55.007812 C 166.488281 56.171875 165.929688 58.933594 164.449219 61.15625 C 164.128906 61.472656 164.136719 61.894531 164.347656 62.210938 C 164.558594 62.53125 164.886719 62.742188 165.308594 62.742188 L 180.574219 62.742188 C 181 62.742188 181.296875 62.53125 181.402344 62.210938 C 181.613281 61.894531 181.613281 61.472656 181.402344 61.15625 C 179.175781 57.773438 175.164062 56.1875 171.667969 54.8125 C 168.699219 53.644531 166.050781 52.707031 165.308594 50.910156 L 165.308594 47.410156 C 166.789062 46.140625 168.378906 43.917969 168.488281 41.066406 C 169.230469 40.429688 170.609375 38.75 170.609375 36.109375 C 170.609375 34.628906 169.96875 33.5625 169.546875 33.035156 L 169.546875 32.078125 C 169.546875 31.441406 169.125 31.019531 168.488281 31.019531 C 167.851562 31.019531 167.429688 31.441406 167.429688 32.078125 L 167.429688 33.332031 C 167.429688 33.648438 167.546875 33.882812 167.757812 34.09375 C 167.757812 34.199219 168.488281 34.941406 168.488281 36.109375 C 168.488281 38.539062 167.003906 39.675781 166.898438 39.675781 C 166.578125 39.785156 166.367188 40.21875 166.367188 40.535156 C 166.367188 43.179688 164.890625 45.070312 163.621094 46.019531 C 163.410156 46.230469 163.1875 46.5625 163.1875 46.878906 L 163.1875 50.582031 C 163.054688 50.660156 162.53125 50.957031 161.730469 51.308594 C 160.824219 51.703125 159.65625 52.066406 158.949219 52.066406 C 158.242188 52.066406 157.070312 51.703125 156.132812 51.308594 C 155.335938 50.964844 154.78125 50.671875 154.609375 50.582031 L 154.609375 46.878906 C 154.609375 46.5625 154.5 46.230469 154.179688 46.019531 C 152.800781 45.070312 151.433594 43.179688 151.433594 40.535156 C 151.433594 40.21875 151.320312 39.886719 151 39.675781 C 150.894531 39.570312 149.3125 38.539062 149.3125 36.109375 C 149.3125 35.050781 150.039062 34.191406 150.039062 34.191406 C 150.253906 33.980469 150.371094 33.78125 150.371094 33.464844 L 150.371094 32.078125 C 150.371094 31.441406 149.949219 31.019531 149.3125 31.019531 Z M 161.898438 33.132812 C 161.472656 33.167969 160.546875 33.308594 159.910156 33.859375 C 159.0625 34.601562 158.949219 35.976562 158.949219 35.976562 C 158.949219 35.976562 160.417969 35.988281 161.269531 35.25 C 162.117188 34.507812 162.128906 33.132812 162.128906 33.132812 C 162.128906 33.132812 162.039062 33.121094 161.898438 33.132812 Z M 157.261719 36.304688 C 155.882812 36.304688 154.710938 37.472656 154.710938 38.949219 C 154.710938 41.59375 157.136719 43.707031 158.089844 43.707031 C 158.40625 43.707031 158.738281 43.617188 158.949219 43.507812 C 159.160156 43.617188 159.492188 43.707031 159.8125 43.707031 C 160.761719 43.707031 163.1875 42.015625 163.1875 38.949219 C 163.1875 37.472656 162.015625 36.304688 160.640625 36.304688 C 160 36.304688 159.371094 36.511719 158.949219 36.933594 C 158.527344 36.511719 157.898438 36.304688 157.261719 36.304688 Z M 157.261719 36.304688 " fill-opacity="1" fill-rule="nonzero"/></g></svg>