<svg xmlns="http://www.w3.org/2000/svg" xmlns:xlink="http://www.w3.org/1999/xlink" width="1080" zoomAndPan="magnify" viewBox="0 0 810 809.999993" height="1080" preserveAspectRatio="xMidYMid meet" version="1.0"><defs><clipPath id="id1"><path d="M 52 26.9375 L 758 26.9375 L 758 782.9375 L 52 782.9375 Z M 52 26.9375 " clip-rule="nonzero"/></clipPath></defs><g clip-path="url(#id1)"><path fill="#5c9bc1" d="M 387.84375 26.835938 C 305.46875 26.835938 239.570312 92.71875 239.570312 175.070312 L 239.570312 240.953125 C 201.664062 232.71875 179.976562 226.15625 178.300781 224.484375 C 170.066406 221.203125 160.476562 226.027344 157.195312 234.261719 C 153.910156 242.496094 158.738281 252.597656 166.976562 255.878906 C 173.539062 255.878906 265.824219 288.820312 405.863281 288.820312 C 545.902344 288.820312 638.382812 256.007812 641.664062 254.335938 C 651.574219 252.664062 654.726562 242.496094 651.445312 234.261719 C 648.164062 226.027344 638.058594 221.203125 629.820312 224.484375 C 629.820312 224.484375 606.976562 232.71875 569.070312 240.953125 L 569.070312 175.070312 C 569.070312 92.71875 503.167969 26.835938 420.792969 26.835938 Z M 256.042969 288.820312 C 246.132812 288.820312 239.570312 295.382812 239.570312 305.292969 L 239.570312 320.21875 C 233.003906 328.453125 223.09375 345.054688 223.09375 368.085938 C 223.09375 409.261719 244.523438 435.382812 256.042969 445.292969 C 259.324219 489.75 282.429688 524.363281 305.46875 544.117188 L 305.46875 598.675781 C 293.949219 625.054688 252.761719 641.265625 206.617188 659.410156 C 152.238281 680.835938 89.363281 705.539062 54.738281 758.234375 C 51.457031 763.1875 51.457031 769.75 54.738281 774.703125 C 58.023438 779.65625 63.105469 782.9375 69.671875 782.9375 L 307.015625 782.9375 C 313.578125 782.9375 318.726562 779.851562 320.398438 771.617188 C 322.074219 766.660156 321.621094 760.097656 318.339844 755.144531 C 295.300781 722.203125 287.128906 677.554688 283.84375 659.410156 C 301.542969 650.015625 316.859375 639.015625 327.09375 624.410156 C 332.113281 627.242188 338.933594 631.035156 348.714844 635.21875 C 355.601562 638.179688 363.390625 640.945312 371.371094 643.453125 L 396.082031 684.117188 C 396.082031 684.117188 356.4375 733.527344 356.4375 782.9375 L 456.832031 782.9375 C 456.832031 731.855469 415.644531 684.117188 415.644531 684.117188 L 440.359375 643.453125 C 448.082031 640.945312 455.351562 638.113281 461.980469 635.21875 C 469.832031 631.808594 476.460938 628.140625 481.546875 625.4375 C 491.714844 641.136719 507.804688 652.589844 526.335938 662.496094 C 523.054688 680.640625 514.367188 723.617188 491.328125 758.234375 C 486.371094 763.1875 486.5 769.75 489.785156 774.703125 C 493.066406 779.65625 498.148438 782.9375 504.714844 782.9375 L 742.058594 782.9375 C 748.621094 782.9375 753.253906 779.65625 754.929688 774.703125 C 758.210938 769.75 758.210938 763.1875 754.929688 758.234375 C 720.304688 705.539062 657.945312 680.835938 603.566406 659.410156 C 557.421875 641.265625 516.234375 626.660156 504.714844 598.675781 L 504.714844 544.117188 C 527.753906 524.363281 552.464844 489.75 554.140625 445.292969 C 565.660156 435.382812 587.089844 409.261719 587.089844 368.085938 C 587.089844 345.054688 577.179688 328.453125 570.613281 320.21875 L 570.613281 305.292969 C 570.613281 295.382812 564.050781 288.820312 554.140625 288.820312 C 544.230469 288.820312 537.664062 295.382812 537.664062 305.292969 L 537.664062 324.851562 C 537.664062 329.804688 539.53125 333.40625 542.8125 336.6875 C 542.8125 338.363281 554.140625 349.941406 554.140625 368.085938 C 554.140625 405.980469 531.101562 423.675781 529.425781 423.675781 C 524.472656 425.347656 521.1875 432.101562 521.1875 437.054688 C 521.1875 478.234375 498.214844 507.699219 478.457031 522.496094 C 475.175781 525.777344 471.765625 530.925781 471.765625 535.878906 L 471.765625 593.527344 C 469.703125 594.75 461.53125 599.382812 449.109375 604.851562 C 435.015625 611.027344 416.867188 616.6875 405.863281 616.6875 C 394.859375 616.6875 376.648438 611.027344 362.101562 604.851562 C 349.679688 599.511719 341.058594 594.941406 338.417969 593.527344 L 338.417969 535.878906 C 338.417969 530.925781 336.683594 525.777344 331.726562 522.496094 C 310.296875 507.699219 288.992188 478.234375 288.992188 437.054688 C 288.992188 432.101562 287.257812 426.957031 282.300781 423.675781 C 280.628906 422 256.042969 405.980469 256.042969 368.085938 C 256.042969 351.617188 267.371094 338.234375 267.371094 338.234375 C 270.652344 334.953125 272.519531 331.863281 272.519531 326.910156 L 272.519531 305.292969 C 272.519531 295.382812 265.953125 288.820312 256.042969 288.820312 Z M 451.683594 321.761719 C 445.054688 322.277344 430.707031 324.464844 420.792969 333.085938 C 407.601562 344.601562 405.863281 366.027344 405.863281 366.027344 C 405.863281 366.027344 428.710938 366.21875 441.902344 354.703125 C 455.097656 343.1875 455.289062 321.761719 455.289062 321.761719 C 455.289062 321.761719 453.875 321.570312 451.683594 321.761719 Z M 379.605469 371.175781 C 358.175781 371.175781 339.964844 389.316406 339.964844 412.351562 C 339.964844 453.527344 377.675781 486.46875 392.476562 486.46875 C 397.433594 486.46875 402.582031 485.054688 405.863281 483.378906 C 409.144531 485.054688 414.292969 486.46875 419.25 486.46875 C 434.050781 486.46875 471.765625 460.089844 471.765625 412.351562 C 471.765625 389.316406 453.550781 371.175781 432.121094 371.175781 C 422.210938 371.175781 412.429688 374.390625 405.863281 380.953125 C 399.300781 374.390625 389.519531 371.175781 379.605469 371.175781 Z M 379.605469 371.175781 " fill-opacity="1" fill-rule="nonzero"/></g></svg>