<svg xmlns="http://www.w3.org/2000/svg" xmlns:xlink="http://www.w3.org/1999/xlink" width="1080" zoomAndPan="magnify" viewBox="0 0 810 809.999993" height="1080" preserveAspectRatio="xMidYMid meet" version="1.0"><defs><clipPath id="id1"><path d="M 36 19.359375 L 774 19.359375 L 774 809.859375 L 36 809.859375 Z M 36 19.359375 " clip-rule="nonzero"/></clipPath></defs><g clip-path="url(#id1)"><path fill="#000000" d="M 387.027344 19.253906 C 300.898438 19.253906 231.996094 88.140625 231.996094 174.253906 L 231.996094 243.140625 C 192.363281 234.53125 169.6875 227.667969 167.941406 225.917969 C 159.328125 222.488281 149.300781 227.535156 145.871094 236.144531 C 142.4375 244.757812 147.484375 255.320312 156.097656 258.75 C 162.960938 258.75 259.449219 293.195312 405.867188 293.195312 C 552.285156 293.195312 648.976562 258.882812 652.410156 257.136719 C 662.769531 255.386719 666.070312 244.757812 662.636719 236.144531 C 659.207031 227.535156 648.640625 222.488281 640.027344 225.917969 C 640.027344 225.917969 616.140625 234.53125 576.507812 243.140625 L 576.507812 174.253906 C 576.507812 88.140625 507.605469 19.253906 421.480469 19.253906 Z M 249.222656 293.195312 C 238.859375 293.195312 231.996094 300.054688 231.996094 310.417969 L 231.996094 326.023438 C 225.132812 334.636719 214.773438 351.992188 214.773438 376.074219 C 214.773438 419.132812 237.179688 446.445312 249.222656 456.804688 C 252.65625 503.292969 276.8125 539.484375 300.898438 560.136719 L 300.898438 617.1875 C 288.855469 644.769531 245.792969 661.722656 197.546875 680.695312 C 140.6875 703.097656 74.949219 728.929688 38.75 784.027344 C 35.316406 789.207031 35.316406 796.070312 38.75 801.25 C 42.179688 806.429688 47.496094 809.859375 54.359375 809.859375 L 302.515625 809.859375 C 309.378906 809.859375 314.761719 806.632812 316.511719 798.019531 C 318.261719 792.839844 317.789062 785.976562 314.355469 780.796875 C 290.269531 746.355469 281.722656 699.664062 278.292969 680.695312 C 296.796875 670.871094 312.808594 659.367188 323.507812 644.097656 C 328.757812 647.058594 335.890625 651.027344 346.117188 655.398438 C 353.316406 658.492188 361.457031 661.386719 369.800781 664.011719 L 395.640625 706.527344 C 395.640625 706.527344 354.191406 758.195312 354.191406 809.859375 L 459.160156 809.859375 C 459.160156 756.445312 416.097656 706.527344 416.097656 706.527344 L 441.933594 664.011719 C 450.007812 661.386719 457.613281 658.425781 464.542969 655.398438 C 472.75 651.832031 479.683594 648 485 645.171875 C 495.628906 661.589844 512.453125 673.5625 531.832031 683.921875 C 528.398438 702.894531 519.316406 747.832031 495.226562 784.027344 C 490.042969 789.207031 490.179688 796.070312 493.609375 801.25 C 497.042969 806.429688 502.359375 809.859375 509.222656 809.859375 L 757.378906 809.859375 C 764.242188 809.859375 769.085938 806.429688 770.835938 801.25 C 774.265625 796.070312 774.265625 789.207031 770.835938 784.027344 C 734.632812 728.929688 669.433594 703.097656 612.574219 680.695312 C 564.328125 661.722656 521.265625 646.453125 509.222656 617.1875 L 509.222656 560.136719 C 533.308594 539.484375 559.148438 503.292969 560.898438 456.804688 C 572.941406 446.445312 595.347656 419.132812 595.347656 376.074219 C 595.347656 351.992188 584.988281 334.636719 578.125 326.023438 L 578.125 310.417969 C 578.125 300.054688 571.261719 293.195312 560.898438 293.195312 C 550.535156 293.195312 543.671875 300.054688 543.671875 310.417969 L 543.671875 330.867188 C 543.671875 336.046875 545.625 339.816406 549.054688 343.246094 C 549.054688 344.996094 560.898438 357.105469 560.898438 376.074219 C 560.898438 415.699219 536.808594 434.199219 535.058594 434.199219 C 529.878906 435.949219 526.445312 443.015625 526.445312 448.195312 C 526.445312 491.25 502.425781 522.0625 481.769531 537.535156 C 478.335938 540.964844 474.769531 546.347656 474.769531 551.527344 L 474.769531 611.804688 C 472.617188 613.082031 464.070312 617.925781 451.085938 623.644531 C 436.347656 630.105469 417.375 636.023438 405.867188 636.023438 C 394.363281 636.023438 375.320312 630.105469 360.113281 623.644531 C 347.125 618.0625 338.109375 613.285156 335.351562 611.804688 L 335.351562 551.527344 C 335.351562 546.347656 333.535156 540.964844 328.351562 537.535156 C 305.945312 522.0625 283.675781 491.25 283.675781 448.195312 C 283.675781 443.015625 281.859375 437.632812 276.675781 434.199219 C 274.925781 432.453125 249.222656 415.699219 249.222656 376.074219 C 249.222656 358.855469 261.066406 344.859375 261.066406 344.859375 C 264.496094 341.429688 266.449219 338.199219 266.449219 333.019531 L 266.449219 310.417969 C 266.449219 300.054688 259.585938 293.195312 249.222656 293.195312 Z M 453.777344 327.636719 C 446.847656 328.175781 431.839844 330.464844 421.480469 339.480469 C 407.683594 351.519531 405.867188 373.921875 405.867188 373.921875 C 405.867188 373.921875 429.753906 374.125 443.550781 362.082031 C 457.34375 350.039062 457.542969 327.636719 457.542969 327.636719 C 457.542969 327.636719 456.066406 327.4375 453.777344 327.636719 Z M 378.414062 379.304688 C 356.007812 379.304688 336.964844 398.277344 336.964844 422.359375 C 336.964844 465.417969 376.394531 499.859375 391.871094 499.859375 C 397.054688 499.859375 402.4375 498.378906 405.867188 496.632812 C 409.300781 498.378906 414.683594 499.859375 419.863281 499.859375 C 435.339844 499.859375 474.769531 472.277344 474.769531 422.359375 C 474.769531 398.277344 455.726562 379.304688 433.320312 379.304688 C 422.960938 379.304688 412.730469 382.667969 405.867188 389.53125 C 399.003906 382.667969 388.777344 379.304688 378.414062 379.304688 Z M 378.414062 379.304688 " fill-opacity="1" fill-rule="nonzero"/></g></svg>