<svg xmlns="http://www.w3.org/2000/svg" xmlns:xlink="http://www.w3.org/1999/xlink" width="1080" zoomAndPan="magnify" viewBox="0 0 810 809.999993" height="1080" preserveAspectRatio="xMidYMid meet" version="1.0"><defs><clipPath id="id1"><path d="M 131.042969 571 L 696.542969 571 L 696.542969 794.222656 L 131.042969 794.222656 Z M 131.042969 571 " clip-rule="nonzero"/></clipPath><clipPath id="id2"><path d="M 165 39.722656 L 646 39.722656 L 646 297 L 165 297 Z M 165 39.722656 " clip-rule="nonzero"/></clipPath><clipPath id="id3"><path d="M 131.042969 39.722656 L 696.542969 39.722656 L 696.542969 794.222656 L 131.042969 794.222656 Z M 131.042969 39.722656 " clip-rule="nonzero"/></clipPath></defs><path fill="#ff9800" d="M 405.222656 674.1875 L 319.542969 571.304688 L 319.542969 468.417969 L 490.90625 468.417969 L 490.90625 571.304688 Z M 405.222656 674.1875 " fill-opacity="1" fill-rule="nonzero"/><path fill="#ffa726" d="M 593.722656 365.53125 C 593.722656 384.394531 578.300781 399.824219 559.453125 399.824219 C 540.601562 399.824219 525.179688 384.394531 525.179688 365.53125 C 525.179688 346.667969 540.601562 331.234375 559.453125 331.234375 C 578.300781 331.234375 593.722656 346.667969 593.722656 365.53125 M 285.269531 365.53125 C 285.269531 346.667969 269.847656 331.234375 250.996094 331.234375 C 232.148438 331.234375 216.722656 346.667969 216.722656 365.53125 C 216.722656 384.394531 232.148438 399.824219 250.996094 399.824219 C 269.847656 399.824219 285.269531 384.394531 285.269531 365.53125 " fill-opacity="1" fill-rule="nonzero"/><path fill="#ffb74d" d="M 559.453125 262.644531 C 559.453125 132.320312 250.996094 176.90625 250.996094 262.644531 L 250.996094 382.679688 C 250.996094 468.417969 319.542969 537.007812 405.222656 537.007812 C 490.90625 537.007812 559.453125 468.417969 559.453125 382.679688 Z M 559.453125 262.644531 " fill-opacity="1" fill-rule="nonzero"/><path fill="#8d6e63" d="M 405.222656 108.3125 C 300.691406 108.3125 233.859375 192.339844 233.859375 296.9375 L 233.859375 336.378906 L 268.132812 365.53125 L 268.132812 279.792969 L 473.769531 211.199219 L 542.316406 279.792969 L 542.316406 365.53125 L 576.585938 336.378906 L 576.585938 296.9375 C 576.585938 228.347656 559.453125 159.757812 473.769531 142.609375 L 456.632812 108.3125 Z M 405.222656 108.3125 " fill-opacity="1" fill-rule="nonzero"/><path fill="#ffffff" d="M 405.222656 777.074219 L 319.542969 571.304688 L 405.222656 588.449219 L 490.90625 571.304688 Z M 405.222656 777.074219 " fill-opacity="1" fill-rule="nonzero"/><path fill="#e65100" d="M 388.085938 639.894531 L 376.09375 717.058594 L 405.222656 785.648438 L 434.355469 717.058594 L 422.359375 639.894531 L 439.496094 622.746094 L 405.222656 588.449219 L 370.953125 622.746094 Z M 388.085938 639.894531 " fill-opacity="1" fill-rule="nonzero"/><g clip-path="url(#id1)"><path fill="#37474f" d="M 490.90625 571.304688 L 405.222656 777.074219 L 319.542969 571.304688 C 319.542969 571.304688 131.042969 605.597656 131.042969 794.222656 L 696.542969 794.222656 C 696.542969 605.597656 490.90625 571.304688 490.90625 571.304688 " fill-opacity="1" fill-rule="nonzero"/></g><g clip-path="url(#id2)"><path fill="#37474f" d="M 624.570312 228.347656 C 617.714844 228.347656 600.578125 231.777344 576.585938 235.207031 L 576.585938 175.191406 C 576.585938 87.738281 502.902344 39.722656 412.078125 39.722656 L 400.082031 39.722656 C 307.546875 39.722656 233.859375 87.738281 233.859375 175.191406 L 233.859375 235.207031 C 209.871094 231.777344 192.734375 228.347656 185.878906 228.347656 C 165.316406 228.347656 165.316406 245.496094 165.316406 245.496094 C 165.316406 245.496094 182.453125 296.9375 273.273438 296.9375 C 343.535156 296.9375 314.402344 296.9375 405.222656 296.9375 C 496.046875 296.9375 475.484375 296.9375 547.457031 296.9375 C 627.996094 296.9375 645.132812 245.496094 645.132812 245.496094 C 645.132812 245.496094 645.132812 228.347656 624.570312 228.347656 Z M 624.570312 228.347656 " fill-opacity="1" fill-rule="nonzero"/></g><path fill="#78909c" d="M 405.222656 254.070312 C 465.203125 254.070312 532.035156 243.78125 576.585938 235.207031 L 576.585938 211.199219 L 233.859375 211.199219 L 233.859375 235.207031 C 278.414062 243.78125 345.246094 254.070312 405.222656 254.070312 Z M 405.222656 254.070312 " fill-opacity="1" fill-rule="nonzero"/><path fill="#ffffff" d="M 439.496094 228.347656 C 439.496094 228.347656 388.085938 267.789062 405.222656 348.382812 " fill-opacity="1" fill-rule="nonzero"/><g clip-path="url(#id3)"><path stroke-linecap="butt" transform="matrix(17.136362, 0, 0, 17.147726, -6.048439, 5.427852)" fill="none" stroke-linejoin="miter" d="M 25.999949 12.999963 C 25.999949 12.999963 22.999886 15.300059 23.999907 20.000026 " stroke="#795548" stroke-width="2" stroke-opacity="1" stroke-miterlimit="10"/></g><path fill="#8bc34a" d="M 388.085938 295.222656 C 388.085938 295.222656 381.234375 219.773438 302.40625 243.78125 C 310.972656 310.65625 388.085938 295.222656 388.085938 295.222656 Z M 388.085938 295.222656 " fill-opacity="1" fill-rule="nonzero"/><path fill="#689f38" d="M 405.222656 348.382812 C 403.511719 346.667969 401.796875 344.953125 400.082031 344.953125 C 398.371094 343.238281 396.65625 343.238281 394.941406 341.523438 C 333.25 307.226562 295.550781 362.101562 305.832031 416.972656 C 316.113281 468.417969 362.382812 516.429688 394.941406 499.28125 C 396.65625 499.28125 396.65625 497.566406 398.371094 497.566406 C 398.371094 497.566406 400.082031 495.851562 400.082031 495.851562 C 400.082031 495.851562 400.082031 495.851562 401.796875 494.136719 C 401.796875 494.136719 403.511719 492.421875 403.511719 492.421875 C 405.222656 490.707031 405.222656 490.707031 406.9375 488.992188 C 439.496094 526.71875 497.761719 473.5625 508.042969 415.257812 C 516.609375 358.671875 473.769531 302.082031 405.222656 348.382812 Z M 405.222656 348.382812 " fill-opacity="1" fill-rule="nonzero"/></svg>